<svg width="25" height="43" viewBox="0 0 25 43" fill="none" xmlns="http://www.w3.org/2000/svg">
<g id="Vector">
<path d="M24.9901 29.9132C25.0316 28.8589 24.9348 27.8006 24.6842 26.7664C22.9039 19.4183 14.1245 14.4026 12.5003 7.0217C10.8757 14.4026 2.09622 19.4183 0.315989 26.7664C0.0652836 27.8006 -0.0316557 28.8589 0.0100364 29.9132C0.00399008 30.0638 0 30.2148 0 30.3665C0 36.9329 5.59638 42.2565 12.5003 42.2565C19.4038 42.2565 25 36.9329 25 30.3665C25 30.2148 24.996 30.0638 24.9901 29.9132Z" fill="#9DE0EB"/>
<path d="M24.9901 29.9132C25.0316 28.8589 24.9348 27.8006 24.6842 26.7664C22.9628 19.6601 14.6956 14.7349 12.6837 7.74292C12.7213 8.39497 12.8655 9.04465 13.0354 9.6726C13.286 10.6009 13.5697 11.5252 13.8495 12.4464C14.4368 14.3793 15.1928 16.2627 16.0266 18.1106C16.796 19.8162 17.6753 21.4752 18.393 23.2018C19.6951 26.3336 20.5531 29.8381 19.3877 33.1328C18.7969 34.8036 17.7255 36.2564 16.4985 37.5609C15.4496 38.6761 14.2423 39.6708 12.8778 40.422C11.6566 41.0942 10.3193 41.5546 8.9267 41.7625C10.0589 42.0834 11.2582 42.2565 12.5003 42.2565C19.4038 42.2565 25 36.9329 25 30.3665C25 30.2148 24.996 30.0638 24.9901 29.9132Z" fill="#83C9CF"/>
<path d="M14.2873 2.06248C14.2873 3.2018 13.3164 4.12535 12.1189 4.12535C10.9215 4.12535 9.95056 3.2018 9.95056 2.06248C9.95056 0.923556 10.9215 0 12.1189 0C13.3164 0 14.2873 0.923556 14.2873 2.06248Z" fill="#9DE0EB"/>
</g>
</svg>
