<svg width="32" height="34" viewBox="0 0 32 34" fill="none" xmlns="http://www.w3.org/2000/svg">
<g id="Vector">
<mask id="path-1-outside-1_946_287" maskUnits="userSpaceOnUse" x="0" y="0" width="32" height="34" fill="black">
<rect fill="white" width="32" height="34"/>
<path d="M16.4964 33.3318C16.188 32.9787 15.8687 32.6339 15.5391 32.298C17.8891 29.6192 20.8617 27.4302 24.2507 25.884L25.3427 25.3857C28.061 24.1455 29.438 21.3684 28.6434 18.729C27.3545 14.4483 27.8217 9.89637 29.9574 5.8997L31 6.80056C29.6385 9.3124 28.939 12.0469 28.9228 14.7977C28.913 16.4481 29.1494 18.1043 29.6363 19.7219C29.686 19.8867 29.7272 20.0525 29.7601 20.2182C29.8588 20.715 29.8831 21.2131 29.8382 21.7012C29.8306 21.7825 29.8213 21.8636 29.8099 21.9443C29.776 22.1867 29.7252 22.4261 29.6579 22.661C29.4113 23.523 28.9449 24.3268 28.2924 25.0049C28.1738 25.1282 28.0491 25.2472 27.9183 25.3618C27.4607 25.7626 26.9304 26.1076 26.3358 26.3789L25.2436 26.8771C25.0308 26.9742 24.8195 27.0739 24.6101 27.1761C23.5623 27.6869 22.5568 28.2601 21.6004 28.8911C21.2177 29.1434 20.8428 29.4051 20.4761 29.6758C19.9262 30.0816 19.3946 30.5075 18.883 30.9525C18.5418 31.2491 18.2096 31.5542 17.8865 31.8677C17.5634 32.181 17.2497 32.5025 16.9454 32.832C16.7933 32.9966 16.6436 33.1632 16.4964 33.3318ZM14.8698 31.6413C12.8204 29.7055 10.4136 28.0927 7.74906 26.8771L6.65707 26.3789C5.69765 25.941 4.90528 25.3118 4.31653 24.5646C4.71779 24.8827 5.16872 25.1597 5.66411 25.3857L6.75612 25.884C9.86388 27.3021 12.6215 29.2602 14.8698 31.6413Z"/>
<path d="M30.0069 5.80764L24.4439 1C18.6212 2.62354 12.3857 2.62354 6.56302 1L1 5.80764C3.17796 9.82642 3.6622 14.4154 2.36345 18.729C1.5688 21.3684 2.94593 24.1455 5.66411 25.3857L6.75612 25.884C10.1622 27.4382 13.1479 29.6413 15.5034 32.3389C17.859 29.6413 20.8446 27.4382 24.2507 25.884L25.3427 25.3857C28.061 24.1455 29.438 21.3684 28.6434 18.729C27.3445 14.4154 27.8289 9.82642 30.0069 5.80764Z"/>
<path d="M3.55547 6.33275C5.34898 10.4464 5.62988 15.0539 4.34382 19.3254C3.84749 20.9741 4.74343 22.6925 6.52249 23.5045L7.61448 24.0025C10.5273 25.3317 13.2508 27.1761 15.5034 29.3443C17.7559 27.1761 20.4794 25.3315 23.3921 24.0025L24.484 23.5043C26.2634 22.6925 27.1593 20.9741 26.6628 19.3254C25.3767 15.0539 25.6576 10.4464 27.4511 6.33275L23.9146 3.2764C18.4086 4.6247 12.5977 4.6247 7.0921 3.2764L3.55547 6.33275ZM15.5034 29.8653C15.4484 29.8653 15.3933 29.8446 15.3511 29.8033C13.1051 27.6062 10.3675 25.7371 7.43391 24.3985L6.34178 23.9005C4.35899 22.9956 3.36605 21.0628 3.92692 19.1999C5.19826 14.977 4.90202 10.4177 3.09255 6.36184C3.05338 6.27435 3.07628 6.17131 3.14899 6.10853L6.89259 2.87321C6.94621 2.82697 7.01875 2.81023 7.08732 2.82677C12.5931 4.194 18.4134 4.194 23.9194 2.82677C23.9884 2.81023 24.0607 2.82697 24.1141 2.87321L27.8577 6.10853C27.9304 6.17131 27.9532 6.27435 27.9141 6.36184C26.1046 10.4177 25.8084 14.977 27.0798 19.1999C27.6406 21.0628 26.6477 22.9956 24.6648 23.9003L23.5728 24.3987C20.6395 25.7371 17.9018 27.606 15.6556 29.8033C15.6132 29.8446 15.5582 29.8653 15.5034 29.8653Z"/>
<path d="M15.5034 32.3389L15.5034 29.8653C15.5582 29.8653 15.6132 29.8446 15.6556 29.8033C17.9018 27.606 20.6395 25.7371 23.5728 24.3987L24.6648 23.9003C26.6477 22.9956 27.6406 21.0628 27.0798 19.1999C25.8084 14.977 26.1046 10.4177 27.9141 6.36184C27.9532 6.27435 27.9304 6.17131 27.8577 6.10853L24.1141 2.87321C24.0741 2.83853 24.0235 2.82046 23.9717 2.82046C23.9543 2.82046 23.9368 2.82258 23.9194 2.82677C21.1664 3.51038 18.3349 3.85205 15.5034 3.85205V2.21756C17.7916 2.21756 20.0801 1.98372 22.3232 1.51616C23.0352 1.36767 23.7425 1.19552 24.4439 1L30.0069 5.80764C29.9903 5.83833 29.9738 5.86881 29.9574 5.8997C27.8217 9.89637 27.3545 14.4483 28.6434 18.729C29.438 21.3684 28.061 24.1455 25.3427 25.3857L24.2507 25.884C20.8617 27.4302 17.8891 29.6192 15.5391 32.298C15.5271 32.3116 15.5154 32.3252 15.5034 32.3389ZM15.5034 29.3443L15.5034 4.28754C18.3326 4.28754 21.1616 3.95045 23.9146 3.2764L27.4511 6.33275C25.6576 10.4464 25.3767 15.0539 26.6628 19.3254C27.1593 20.9741 26.2634 22.6925 24.484 23.5043L23.3921 24.0025C20.4794 25.3315 17.7559 27.1761 15.5034 29.3443Z"/>
<path d="M15.5034 29.8653V29.3443C17.7559 27.1761 20.4794 25.3315 23.3921 24.0025L24.484 23.5043C26.2634 22.6925 27.1593 20.9741 26.6628 19.3254C25.3767 15.0539 25.6576 10.4464 27.4511 6.33275L23.9146 3.2764C21.1616 3.95045 18.3326 4.28754 15.5034 4.28754V3.85205C18.3349 3.85205 21.1664 3.51038 23.9194 2.82677C23.9368 2.82258 23.9543 2.82046 23.9717 2.82046C24.0235 2.82046 24.0741 2.83853 24.1141 2.87321L27.8577 6.10853C27.9304 6.17131 27.9532 6.27435 27.9141 6.36184C26.1046 10.4177 25.8084 14.977 27.0798 19.1999C27.6406 21.0628 26.6477 22.9956 24.6648 23.9003L23.5728 24.3987C20.6395 25.7371 17.9018 27.606 15.6556 29.8033C15.6132 29.8446 15.5582 29.8653 15.5034 29.8653Z"/>
<path d="M8.94093 13.769C9.16893 13.805 9.37593 13.898 9.56193 14.048C9.75393 14.198 9.90393 14.384 10.0119 14.606C10.1259 14.828 10.1829 15.065 10.1829 15.317C10.1829 15.635 10.1019 15.923 9.93993 16.181C9.77793 16.433 9.54093 16.634 9.22893 16.784C8.92293 16.928 8.55993 17 8.13993 17H5.79993V10.727H8.04993C8.47593 10.727 8.83893 10.799 9.13893 10.943C9.43893 11.081 9.66393 11.27 9.81393 11.51C9.96393 11.75 10.0389 12.02 10.0389 12.32C10.0389 12.692 9.93693 13.001 9.73293 13.247C9.53493 13.487 9.27093 13.661 8.94093 13.769ZM6.61893 13.436H7.99593C8.37993 13.436 8.67693 13.346 8.88693 13.166C9.09693 12.986 9.20193 12.737 9.20193 12.419C9.20193 12.101 9.09693 11.852 8.88693 11.672C8.67693 11.492 8.37393 11.402 7.97793 11.402H6.61893V13.436ZM8.06793 16.325C8.47593 16.325 8.79393 16.229 9.02193 16.037C9.24993 15.845 9.36393 15.578 9.36393 15.236C9.36393 14.888 9.24393 14.615 9.00393 14.417C8.76393 14.213 8.44293 14.111 8.04093 14.111H6.61893V16.325H8.06793Z"/>
<path d="M15.5135 12.563C15.5135 13.085 15.3335 13.52 14.9735 13.868C14.6195 14.21 14.0765 14.381 13.3445 14.381H12.1385V17H11.3195V10.727H13.3445C14.0525 10.727 14.5895 10.898 14.9555 11.24C15.3275 11.582 15.5135 12.023 15.5135 12.563ZM13.3445 13.706C13.8005 13.706 14.1365 13.607 14.3525 13.409C14.5685 13.211 14.6765 12.929 14.6765 12.563C14.6765 11.789 14.2325 11.402 13.3445 11.402H12.1385V13.706H13.3445Z"/>
<path d="M19.6904 10.727V15.362C19.6904 15.878 19.5314 16.292 19.2134 16.604C18.8954 16.91 18.4754 17.063 17.9534 17.063C17.4254 17.063 17.0024 16.907 16.6844 16.595C16.3664 16.277 16.2074 15.845 16.2074 15.299H17.0264C17.0324 15.605 17.1104 15.854 17.2604 16.046C17.4164 16.238 17.6474 16.334 17.9534 16.334C18.2594 16.334 18.4874 16.244 18.6374 16.064C18.7874 15.878 18.8624 15.644 18.8624 15.362V10.727H19.6904Z"/>
<path d="M23.2928 17.063C22.8788 17.063 22.5068 16.991 22.1768 16.847C21.8528 16.697 21.5978 16.493 21.4118 16.235C21.2258 15.971 21.1298 15.668 21.1238 15.326H21.9968C22.0268 15.62 22.1468 15.869 22.3568 16.073C22.5728 16.271 22.8848 16.37 23.2928 16.37C23.6828 16.37 23.9888 16.274 24.2108 16.082C24.4388 15.884 24.5528 15.632 24.5528 15.326C24.5528 15.086 24.4868 14.891 24.3548 14.741C24.2228 14.591 24.0578 14.477 23.8598 14.399C23.6618 14.321 23.3948 14.237 23.0588 14.147C22.6448 14.039 22.3118 13.931 22.0598 13.823C21.8138 13.715 21.6008 13.547 21.4208 13.319C21.2468 13.085 21.1598 12.773 21.1598 12.383C21.1598 12.041 21.2468 11.738 21.4208 11.474C21.5948 11.21 21.8378 11.006 22.1498 10.862C22.4678 10.718 22.8308 10.646 23.2388 10.646C23.8268 10.646 24.3068 10.793 24.6788 11.087C25.0568 11.381 25.2698 11.771 25.3178 12.257H24.4178C24.3878 12.017 24.2618 11.807 24.0398 11.627C23.8178 11.441 23.5238 11.348 23.1578 11.348C22.8158 11.348 22.5368 11.438 22.3208 11.618C22.1048 11.792 21.9968 12.038 21.9968 12.356C21.9968 12.584 22.0598 12.77 22.1858 12.914C22.3178 13.058 22.4768 13.169 22.6628 13.247C22.8548 13.319 23.1218 13.403 23.4638 13.499C23.8778 13.613 24.2108 13.727 24.4628 13.841C24.7148 13.949 24.9308 14.12 25.1108 14.354C25.2908 14.582 25.3808 14.894 25.3808 15.29C25.3808 15.596 25.2998 15.884 25.1378 16.154C24.9758 16.424 24.7358 16.643 24.4178 16.811C24.0998 16.979 23.7248 17.063 23.2928 17.063Z"/>
</mask>
<path d="M16.4964 33.3318C16.188 32.9787 15.8687 32.6339 15.5391 32.298C17.8891 29.6192 20.8617 27.4302 24.2507 25.884L25.3427 25.3857C28.061 24.1455 29.438 21.3684 28.6434 18.729C27.3545 14.4483 27.8217 9.89637 29.9574 5.8997L31 6.80056C29.6385 9.3124 28.939 12.0469 28.9228 14.7977C28.913 16.4481 29.1494 18.1043 29.6363 19.7219C29.686 19.8867 29.7272 20.0525 29.7601 20.2182C29.8588 20.715 29.8831 21.2131 29.8382 21.7012C29.8306 21.7825 29.8213 21.8636 29.8099 21.9443C29.776 22.1867 29.7252 22.4261 29.6579 22.661C29.4113 23.523 28.9449 24.3268 28.2924 25.0049C28.1738 25.1282 28.0491 25.2472 27.9183 25.3618C27.4607 25.7626 26.9304 26.1076 26.3358 26.3789L25.2436 26.8771C25.0308 26.9742 24.8195 27.0739 24.6101 27.1761C23.5623 27.6869 22.5568 28.2601 21.6004 28.8911C21.2177 29.1434 20.8428 29.4051 20.4761 29.6758C19.9262 30.0816 19.3946 30.5075 18.883 30.9525C18.5418 31.2491 18.2096 31.5542 17.8865 31.8677C17.5634 32.181 17.2497 32.5025 16.9454 32.832C16.7933 32.9966 16.6436 33.1632 16.4964 33.3318ZM14.8698 31.6413C12.8204 29.7055 10.4136 28.0927 7.74906 26.8771L6.65707 26.3789C5.69765 25.941 4.90528 25.3118 4.31653 24.5646C4.71779 24.8827 5.16872 25.1597 5.66411 25.3857L6.75612 25.884C9.86388 27.3021 12.6215 29.2602 14.8698 31.6413Z" fill="#D6D4D1"/>
<path d="M30.0069 5.80764L24.4439 1C18.6212 2.62354 12.3857 2.62354 6.56302 1L1 5.80764C3.17796 9.82642 3.6622 14.4154 2.36345 18.729C1.5688 21.3684 2.94593 24.1455 5.66411 25.3857L6.75612 25.884C10.1622 27.4382 13.1479 29.6413 15.5034 32.3389C17.859 29.6413 20.8446 27.4382 24.2507 25.884L25.3427 25.3857C28.061 24.1455 29.438 21.3684 28.6434 18.729C27.3445 14.4154 27.8289 9.82642 30.0069 5.80764Z" fill="#A9B6B1"/>
<path d="M3.55547 6.33275C5.34898 10.4464 5.62988 15.0539 4.34382 19.3254C3.84749 20.9741 4.74343 22.6925 6.52249 23.5045L7.61448 24.0025C10.5273 25.3317 13.2508 27.1761 15.5034 29.3443C17.7559 27.1761 20.4794 25.3315 23.3921 24.0025L24.484 23.5043C26.2634 22.6925 27.1593 20.9741 26.6628 19.3254C25.3767 15.0539 25.6576 10.4464 27.4511 6.33275L23.9146 3.2764C18.4086 4.6247 12.5977 4.6247 7.0921 3.2764L3.55547 6.33275ZM15.5034 29.8653C15.4484 29.8653 15.3933 29.8446 15.3511 29.8033C13.1051 27.6062 10.3675 25.7371 7.43391 24.3985L6.34178 23.9005C4.35899 22.9956 3.36605 21.0628 3.92692 19.1999C5.19826 14.977 4.90202 10.4177 3.09255 6.36184C3.05338 6.27435 3.07628 6.17131 3.14899 6.10853L6.89259 2.87321C6.94621 2.82697 7.01875 2.81023 7.08732 2.82677C12.5931 4.194 18.4134 4.194 23.9194 2.82677C23.9884 2.81023 24.0607 2.82697 24.1141 2.87321L27.8577 6.10853C27.9304 6.17131 27.9532 6.27435 27.9141 6.36184C26.1046 10.4177 25.8084 14.977 27.0798 19.1999C27.6406 21.0628 26.6477 22.9956 24.6648 23.9003L23.5728 24.3987C20.6395 25.7371 17.9018 27.606 15.6556 29.8033C15.6132 29.8446 15.5582 29.8653 15.5034 29.8653Z" fill="#59615D"/>
<path d="M15.5034 32.3389L15.5034 29.8653C15.5582 29.8653 15.6132 29.8446 15.6556 29.8033C17.9018 27.606 20.6395 25.7371 23.5728 24.3987L24.6648 23.9003C26.6477 22.9956 27.6406 21.0628 27.0798 19.1999C25.8084 14.977 26.1046 10.4177 27.9141 6.36184C27.9532 6.27435 27.9304 6.17131 27.8577 6.10853L24.1141 2.87321C24.0741 2.83853 24.0235 2.82046 23.9717 2.82046C23.9543 2.82046 23.9368 2.82258 23.9194 2.82677C21.1664 3.51038 18.3349 3.85205 15.5034 3.85205V2.21756C17.7916 2.21756 20.0801 1.98372 22.3232 1.51616C23.0352 1.36767 23.7425 1.19552 24.4439 1L30.0069 5.80764C29.9903 5.83833 29.9738 5.86881 29.9574 5.8997C27.8217 9.89637 27.3545 14.4483 28.6434 18.729C29.438 21.3684 28.061 24.1455 25.3427 25.3857L24.2507 25.884C20.8617 27.4302 17.8891 29.6192 15.5391 32.298C15.5271 32.3116 15.5154 32.3252 15.5034 32.3389ZM15.5034 29.3443L15.5034 4.28754C18.3326 4.28754 21.1616 3.95045 23.9146 3.2764L27.4511 6.33275C25.6576 10.4464 25.3767 15.0539 26.6628 19.3254C27.1593 20.9741 26.2634 22.6925 24.484 23.5043L23.3921 24.0025C20.4794 25.3315 17.7559 27.1761 15.5034 29.3443Z" fill="#84938D"/>
<path d="M15.5034 29.8653V29.3443C17.7559 27.1761 20.4794 25.3315 23.3921 24.0025L24.484 23.5043C26.2634 22.6925 27.1593 20.9741 26.6628 19.3254C25.3767 15.0539 25.6576 10.4464 27.4511 6.33275L23.9146 3.2764C21.1616 3.95045 18.3326 4.28754 15.5034 4.28754V3.85205C18.3349 3.85205 21.1664 3.51038 23.9194 2.82677C23.9368 2.82258 23.9543 2.82046 23.9717 2.82046C24.0235 2.82046 24.0741 2.83853 24.1141 2.87321L27.8577 6.10853C27.9304 6.17131 27.9532 6.27435 27.9141 6.36184C26.1046 10.4177 25.8084 14.977 27.0798 19.1999C27.6406 21.0628 26.6477 22.9956 24.6648 23.9003L23.5728 24.3987C20.6395 25.7371 17.9018 27.606 15.6556 29.8033C15.6132 29.8446 15.5582 29.8653 15.5034 29.8653Z" fill="#59615D"/>
<path d="M8.94093 13.769C9.16893 13.805 9.37593 13.898 9.56193 14.048C9.75393 14.198 9.90393 14.384 10.0119 14.606C10.1259 14.828 10.1829 15.065 10.1829 15.317C10.1829 15.635 10.1019 15.923 9.93993 16.181C9.77793 16.433 9.54093 16.634 9.22893 16.784C8.92293 16.928 8.55993 17 8.13993 17H5.79993V10.727H8.04993C8.47593 10.727 8.83893 10.799 9.13893 10.943C9.43893 11.081 9.66393 11.27 9.81393 11.51C9.96393 11.75 10.0389 12.02 10.0389 12.32C10.0389 12.692 9.93693 13.001 9.73293 13.247C9.53493 13.487 9.27093 13.661 8.94093 13.769ZM6.61893 13.436H7.99593C8.37993 13.436 8.67693 13.346 8.88693 13.166C9.09693 12.986 9.20193 12.737 9.20193 12.419C9.20193 12.101 9.09693 11.852 8.88693 11.672C8.67693 11.492 8.37393 11.402 7.97793 11.402H6.61893V13.436ZM8.06793 16.325C8.47593 16.325 8.79393 16.229 9.02193 16.037C9.24993 15.845 9.36393 15.578 9.36393 15.236C9.36393 14.888 9.24393 14.615 9.00393 14.417C8.76393 14.213 8.44293 14.111 8.04093 14.111H6.61893V16.325H8.06793Z" fill="#111110"/>
<path d="M15.5135 12.563C15.5135 13.085 15.3335 13.52 14.9735 13.868C14.6195 14.21 14.0765 14.381 13.3445 14.381H12.1385V17H11.3195V10.727H13.3445C14.0525 10.727 14.5895 10.898 14.9555 11.24C15.3275 11.582 15.5135 12.023 15.5135 12.563ZM13.3445 13.706C13.8005 13.706 14.1365 13.607 14.3525 13.409C14.5685 13.211 14.6765 12.929 14.6765 12.563C14.6765 11.789 14.2325 11.402 13.3445 11.402H12.1385V13.706H13.3445Z" fill="#111110"/>
<path d="M19.6904 10.727V15.362C19.6904 15.878 19.5314 16.292 19.2134 16.604C18.8954 16.91 18.4754 17.063 17.9534 17.063C17.4254 17.063 17.0024 16.907 16.6844 16.595C16.3664 16.277 16.2074 15.845 16.2074 15.299H17.0264C17.0324 15.605 17.1104 15.854 17.2604 16.046C17.4164 16.238 17.6474 16.334 17.9534 16.334C18.2594 16.334 18.4874 16.244 18.6374 16.064C18.7874 15.878 18.8624 15.644 18.8624 15.362V10.727H19.6904Z" fill="#111110"/>
<path d="M23.2928 17.063C22.8788 17.063 22.5068 16.991 22.1768 16.847C21.8528 16.697 21.5978 16.493 21.4118 16.235C21.2258 15.971 21.1298 15.668 21.1238 15.326H21.9968C22.0268 15.62 22.1468 15.869 22.3568 16.073C22.5728 16.271 22.8848 16.37 23.2928 16.37C23.6828 16.37 23.9888 16.274 24.2108 16.082C24.4388 15.884 24.5528 15.632 24.5528 15.326C24.5528 15.086 24.4868 14.891 24.3548 14.741C24.2228 14.591 24.0578 14.477 23.8598 14.399C23.6618 14.321 23.3948 14.237 23.0588 14.147C22.6448 14.039 22.3118 13.931 22.0598 13.823C21.8138 13.715 21.6008 13.547 21.4208 13.319C21.2468 13.085 21.1598 12.773 21.1598 12.383C21.1598 12.041 21.2468 11.738 21.4208 11.474C21.5948 11.21 21.8378 11.006 22.1498 10.862C22.4678 10.718 22.8308 10.646 23.2388 10.646C23.8268 10.646 24.3068 10.793 24.6788 11.087C25.0568 11.381 25.2698 11.771 25.3178 12.257H24.4178C24.3878 12.017 24.2618 11.807 24.0398 11.627C23.8178 11.441 23.5238 11.348 23.1578 11.348C22.8158 11.348 22.5368 11.438 22.3208 11.618C22.1048 11.792 21.9968 12.038 21.9968 12.356C21.9968 12.584 22.0598 12.77 22.1858 12.914C22.3178 13.058 22.4768 13.169 22.6628 13.247C22.8548 13.319 23.1218 13.403 23.4638 13.499C23.8778 13.613 24.2108 13.727 24.4628 13.841C24.7148 13.949 24.9308 14.12 25.1108 14.354C25.2908 14.582 25.3808 14.894 25.3808 15.29C25.3808 15.596 25.2998 15.884 25.1378 16.154C24.9758 16.424 24.7358 16.643 24.4178 16.811C24.0998 16.979 23.7248 17.063 23.2928 17.063Z" fill="#111110"/>
<path d="M24.2507 25.884L24.2922 25.975L24.2922 25.975L24.2507 25.884ZM25.3427 25.3857L25.3012 25.2948H25.3012L25.3427 25.3857ZM28.6434 18.729L28.7391 18.7001L28.7391 18.7001L28.6434 18.729ZM23.3921 24.0025L23.4336 24.0935L23.3921 24.0025ZM24.484 23.5043L24.4425 23.4133L24.4425 23.4133L24.484 23.5043ZM26.6628 19.3254L26.5671 19.3543L26.5671 19.3543L26.6628 19.3254ZM27.4511 6.33275L27.5428 6.37271L27.5722 6.30523L27.5165 6.25709L27.4511 6.33275ZM23.9146 3.2764L23.98 3.20074L23.941 3.167L23.8909 3.17927L23.9146 3.2764ZM23.9194 2.82677L23.8959 2.72956L23.8953 2.72972L23.9194 2.82677ZM24.1141 2.87321L24.0487 2.94882L24.0487 2.94887L24.1141 2.87321ZM27.8577 6.10853L27.7923 6.18419L27.7923 6.18423L27.8577 6.10853ZM27.9141 6.36184L27.8228 6.32107L27.8228 6.3211L27.9141 6.36184ZM27.0798 19.1999L27.1755 19.171L27.0798 19.1999ZM24.6648 23.9003L24.6233 23.8093L24.6233 23.8093L24.6648 23.9003ZM23.5728 24.3987L23.6143 24.4897L23.6144 24.4897L23.5728 24.3987ZM15.6556 29.8033L15.7253 29.875L15.7256 29.8748L15.6556 29.8033ZM15.6143 32.364C17.9545 29.6962 20.9155 27.5156 24.2922 25.975L24.2092 25.793C20.8079 27.3448 17.8237 29.5421 15.4639 32.2321L15.6143 32.364ZM24.2922 25.975L25.3842 25.4767L25.3012 25.2948L24.2092 25.793L24.2922 25.975ZM25.3842 25.4767C28.1422 24.2183 29.5499 21.3932 28.7391 18.7001L28.5476 18.7578C29.3261 21.3435 27.9798 24.0726 25.3012 25.2948L25.3842 25.4767ZM28.7391 18.7001C27.458 14.4452 27.9221 9.92055 30.0456 5.94684L29.8692 5.85257C27.7212 9.87218 27.251 14.4514 28.5476 18.7578L28.7391 18.7001ZM5.6226 25.4767L6.71461 25.975L6.79763 25.793L5.70562 25.2948L5.6226 25.4767ZM30.0723 5.73198L24.5092 0.924339L24.3785 1.07566L29.9415 5.8833L30.0723 5.73198ZM15.5727 29.4163C17.8169 27.2561 20.531 25.4179 23.4336 24.0935L23.3505 23.9116C20.4279 25.2451 17.6949 27.096 15.434 29.2722L15.5727 29.4163ZM23.4336 24.0935L24.5256 23.5952L24.4425 23.4133L23.3505 23.9116L23.4336 24.0935ZM24.5256 23.5952C26.3412 22.7669 27.2722 21.0022 26.7586 19.2966L26.5671 19.3543C27.0464 20.9459 26.1856 22.6181 24.4425 23.4133L24.5256 23.5952ZM26.7586 19.2966C25.4794 15.048 25.7586 10.4648 27.5428 6.37271L27.3594 6.29278C25.5565 10.428 25.2741 15.0599 26.5671 19.3543L26.7586 19.2966ZM27.5165 6.25709L23.98 3.20074L23.8492 3.35206L27.3857 6.40841L27.5165 6.25709ZM24.0487 2.94887L27.7923 6.18419L27.9231 6.03287L24.1795 2.79755L24.0487 2.94887ZM27.7923 6.18423C27.8316 6.21808 27.8439 6.27374 27.8228 6.32107L28.0054 6.40261C28.0624 6.27496 28.0293 6.12454 27.923 6.03282L27.7923 6.18423ZM27.8228 6.3211C26.0036 10.3987 25.7057 14.9827 26.984 19.2287L27.1755 19.171C25.9111 14.9713 26.2056 10.4367 28.0054 6.40259L27.8228 6.3211ZM26.984 19.2287C27.528 21.0356 26.5689 22.9217 24.6233 23.8093L24.7063 23.9913C26.7265 23.0696 27.7533 21.09 27.1755 19.171L26.984 19.2287ZM24.6233 23.8093L23.5313 24.3078L23.6144 24.4897L24.7063 23.9912L24.6233 23.8093ZM23.5313 24.3078C20.5877 25.6508 17.8404 27.5262 15.5857 29.7318L15.7256 29.8748C17.9632 27.6857 20.6912 25.8234 23.6143 24.4897L23.5313 24.3078ZM15.5859 29.7316C15.5628 29.7541 15.533 29.7653 15.5034 29.7653V29.9653C15.5833 29.9653 15.6636 29.935 15.7253 29.875L15.5859 29.7316ZM24.1796 2.7976C24.1208 2.74672 24.0468 2.72046 23.9717 2.72046V2.92046C24.0002 2.92046 24.0273 2.93034 24.0487 2.94882L24.1796 2.7976ZM23.9717 2.72046C23.9462 2.72046 23.9207 2.72357 23.8959 2.72956L23.9429 2.92398C23.9528 2.92159 23.9625 2.92046 23.9717 2.92046V2.72046ZM23.8953 2.72972C21.1503 3.41135 18.3269 3.75205 15.5034 3.75205V3.95205C18.343 3.95205 21.1825 3.60942 23.9435 2.92382L23.8953 2.72972ZM15.5034 4.38754C18.3405 4.38754 21.1775 4.04951 23.9384 3.37353L23.8909 3.17927C21.1457 3.85139 18.3246 4.18754 15.5034 4.18754V4.38754ZM16.4964 33.3318L16.3457 33.4634L16.4963 33.6359L16.647 33.4634L16.4964 33.3318ZM15.5391 32.298L15.6818 32.1579L15.5313 32.0046L15.3891 32.1657L15.5391 32.298ZM29.9574 5.8997L29.7806 5.80618L29.7062 5.94693L29.8266 6.05104L29.9574 5.8997ZM31 6.80056L31.1758 6.89586L31.2525 6.75442L31.1307 6.64923L31 6.80056ZM28.9228 14.7977L29.1228 14.7989V14.7988L28.9228 14.7977ZM29.6363 19.7219L29.4448 19.7795L29.4448 19.7796L29.6363 19.7219ZM29.7601 20.2182L29.5639 20.2571V20.2571L29.7601 20.2182ZM29.8382 21.7012L30.0374 21.7197L30.0374 21.7195L29.8382 21.7012ZM29.8099 21.9443L29.6119 21.9165L29.6118 21.9167L29.8099 21.9443ZM29.6579 22.661L29.4656 22.6059L29.4656 22.606L29.6579 22.661ZM28.2924 25.0049L28.1483 24.8662L28.1482 24.8663L28.2924 25.0049ZM27.9183 25.3618L28.0501 25.5123L28.0502 25.5122L27.9183 25.3618ZM26.3358 26.3789L26.4188 26.5608L26.4189 26.5608L26.3358 26.3789ZM25.2436 26.8771L25.3266 27.0591L25.3267 27.0591L25.2436 26.8771ZM24.6101 27.1761L24.6977 27.3559L24.6978 27.3558L24.6101 27.1761ZM21.6004 28.8911L21.7104 29.0581L21.7105 29.0581L21.6004 28.8911ZM20.4761 29.6758L20.5948 29.8367L20.5948 29.8367L20.4761 29.6758ZM18.883 30.9525L19.0142 31.1035L19.0143 31.1034L18.883 30.9525ZM17.8865 31.8677L18.0257 32.0113L18.0258 32.0113L17.8865 31.8677ZM16.9454 32.832L16.7985 32.6963L16.7985 32.6963L16.9454 32.832ZM14.8698 31.6413L14.7325 31.7867L15.0152 31.504L14.8698 31.6413ZM7.74906 26.8771L7.66603 27.0591L7.66605 27.0591L7.74906 26.8771ZM6.65707 26.3789L6.57403 26.5608L6.57404 26.5608L6.65707 26.3789ZM4.31653 24.5646L4.44077 24.4079L4.15944 24.6884L4.31653 24.5646ZM5.66411 25.3857L5.58109 25.5677L5.74713 25.2038L5.66411 25.3857ZM30.0069 5.80764L30.1829 5.90253L29.831 5.71234L30.0069 5.80764ZM24.4439 1L24.4976 1.19265L24.3902 0.807346L24.4439 1ZM6.56302 1L6.61674 0.807349L6.51341 0.778538L6.43225 0.848679L6.56302 1ZM1 5.80764L0.869226 5.65632L0.747514 5.7615L0.824162 5.90293L1 5.80764ZM2.36345 18.729L2.17194 18.6713L2.17194 18.6713L2.36345 18.729ZM15.5034 32.3389L15.3528 32.4705L15.5034 32.643L15.6541 32.4705L15.5034 32.3389ZM3.55547 6.33275L3.4247 6.18142L3.31329 6.2777L3.37214 6.41268L3.55547 6.33275ZM4.34382 19.3254L4.15232 19.2678L4.15231 19.2678L4.34382 19.3254ZM6.52249 23.5045L6.43945 23.6864L6.43949 23.6864L6.52249 23.5045ZM7.61448 24.0025L7.6975 23.8206L7.69747 23.8206L7.61448 24.0025ZM7.0921 3.2764L7.13967 3.08214L7.03942 3.05759L6.96133 3.12508L7.0921 3.2764ZM15.3511 29.8033L15.2112 29.9463L15.2114 29.9464L15.3511 29.8033ZM7.43391 24.3985L7.51693 24.2166L7.51689 24.2166L7.43391 24.3985ZM6.34178 23.9005L6.25874 24.0824L6.25879 24.0825L6.34178 23.9005ZM3.92692 19.1999L4.11843 19.2575L4.11843 19.2575L3.92692 19.1999ZM3.09255 6.36184L3.27519 6.28036L3.27509 6.28013L3.09255 6.36184ZM3.14899 6.10853L3.2797 6.2599L3.27976 6.25985L3.14899 6.10853ZM6.89259 2.87321L6.76197 2.72175L6.76182 2.72189L6.89259 2.87321ZM7.08732 2.82677L7.13552 2.63266L7.13423 2.63235L7.08732 2.82677ZM23.9194 2.82677L23.8728 2.63228L23.8712 2.63266L23.9194 2.82677ZM22.3232 1.51616L22.3641 1.71195L22.3641 1.71194L22.3232 1.51616ZM15.5034 2.21756V2.01756H15.3034V2.21756H15.5034ZM15.5034 4.28754L15.7034 4.28754V4.28754H15.5034ZM8.94093 13.769L8.87873 13.579L8.90974 13.9666L8.94093 13.769ZM9.56193 14.048L9.43637 14.2037L9.4388 14.2056L9.56193 14.048ZM10.0119 14.606L9.83204 14.6936L9.83402 14.6974L10.0119 14.606ZM9.93993 16.181L10.1082 16.2892L10.1093 16.2874L9.93993 16.181ZM9.22893 16.784L9.3141 16.965L9.31559 16.9643L9.22893 16.784ZM5.79993 17H5.59993V17.2H5.79993V17ZM5.79993 10.727V10.527H5.59993V10.727H5.79993ZM9.13893 10.943L9.05238 11.1234L9.05535 11.1247L9.13893 10.943ZM9.81393 11.51L9.64433 11.616L9.81393 11.51ZM9.73293 13.247L9.57898 13.1194L9.57866 13.1198L9.73293 13.247ZM6.61893 13.436H6.41893V13.636H6.61893V13.436ZM8.88693 11.672L8.75678 11.8239L8.88693 11.672ZM6.61893 11.402V11.202H6.41893V11.402H6.61893ZM9.02193 16.037L9.15076 16.19V16.19L9.02193 16.037ZM9.00393 14.417L8.87439 14.5694L8.87666 14.5713L9.00393 14.417ZM6.61893 14.111V13.911H6.41893V14.111H6.61893ZM6.61893 16.325H6.41893V16.525H6.61893V16.325ZM14.9735 13.868L15.1124 14.0119L15.1125 14.0118L14.9735 13.868ZM12.1385 14.381V14.181H11.9385V14.381H12.1385ZM12.1385 17V17.2H12.3385V17H12.1385ZM11.3195 17H11.1195V17.2H11.3195V17ZM11.3195 10.727V10.527H11.1195V10.727H11.3195ZM14.9555 11.24L14.8189 11.3862L14.8201 11.3873L14.9555 11.24ZM14.3525 13.409L14.4876 13.5565L14.3525 13.409ZM12.1385 11.402V11.202H11.9385V11.402H12.1385ZM12.1385 13.706H11.9385V13.906H12.1385V13.706ZM19.6904 10.727H19.8904V10.527H19.6904V10.727ZM19.2134 16.604L19.3521 16.7482L19.3534 16.7468L19.2134 16.604ZM16.6844 16.595L16.543 16.7365L16.5443 16.7378L16.6844 16.595ZM16.2074 15.299V15.099H16.0074V15.299H16.2074ZM17.0264 15.299L17.2263 15.2951L17.2225 15.099H17.0264V15.299ZM17.2604 16.046L17.1027 16.1692L17.1052 16.1722L17.2604 16.046ZM18.6374 16.064L18.791 16.1921L18.7931 16.1896L18.6374 16.064ZM18.8624 10.727V10.527H18.6624V10.727H18.8624ZM22.1768 16.847L22.0928 17.0286L22.0969 17.0303L22.1768 16.847ZM21.4118 16.235L21.2483 16.3502L21.2496 16.352L21.4118 16.235ZM21.1238 15.326V15.126H20.9203L20.9239 15.3296L21.1238 15.326ZM21.9968 15.326L22.1958 15.3057L22.1775 15.126H21.9968V15.326ZM22.3568 16.073L22.2174 16.2166L22.2217 16.2205L22.3568 16.073ZM24.2108 16.082L24.3417 16.2333L24.342 16.233L24.2108 16.082ZM24.3548 14.741L24.2047 14.8732L24.3548 14.741ZM23.8598 14.399L23.7865 14.5851L23.8598 14.399ZM23.0588 14.147L23.1106 13.9538L23.1093 13.9535L23.0588 14.147ZM22.0598 13.823L21.9794 14.0062L21.9811 14.0069L22.0598 13.823ZM21.4208 13.319L21.2603 13.4384L21.2639 13.443L21.4208 13.319ZM21.4208 11.474L21.5878 11.5841L21.4208 11.474ZM22.1498 10.862L22.0673 10.6798L22.066 10.6804L22.1498 10.862ZM24.6788 11.087L24.5548 11.244L24.5561 11.2449L24.6788 11.087ZM25.3178 12.257V12.457H25.5386L25.5169 12.2374L25.3178 12.257ZM24.4178 12.257L24.2194 12.2818L24.2413 12.457H24.4178V12.257ZM24.0398 11.627L23.9114 11.7804L23.9139 11.7824L24.0398 11.627ZM22.3208 11.618L22.4463 11.7738L22.4489 11.7717L22.3208 11.618ZM22.1858 12.914L22.0353 13.0458L22.0384 13.0492L22.1858 12.914ZM22.6628 13.247L22.5854 13.4316L22.5926 13.4343L22.6628 13.247ZM23.4638 13.499L23.4098 13.6916L23.4107 13.6919L23.4638 13.499ZM24.4628 13.841L24.3804 14.0233L24.3841 14.0249L24.4628 13.841ZM25.1108 14.354L24.9523 14.476L24.9539 14.478L25.1108 14.354ZM25.1378 16.154L25.3093 16.2569L25.1378 16.154ZM16.647 33.2003C16.3361 32.8442 16.0142 32.4965 15.6818 32.1579L15.3964 32.4381C15.7233 32.7712 16.0399 33.1131 16.3457 33.4634L16.647 33.2003ZM29.8266 6.05104L30.8692 6.95189L31.1307 6.64923L30.0882 5.74837L29.8266 6.05104ZM30.8241 6.70525C29.4473 9.24554 28.7392 12.0123 28.7228 14.7965L29.1228 14.7988C29.1388 12.0814 29.8298 9.37925 31.1758 6.89586L30.8241 6.70525ZM28.7228 14.7965C28.7129 16.4669 28.9522 18.1429 29.4448 19.7795L29.8278 19.6643C29.3467 18.0657 29.1132 16.4293 29.1228 14.7989L28.7228 14.7965ZM29.4448 19.7796C29.4926 19.9382 29.5323 20.0978 29.5639 20.2571L29.9563 20.1792C29.9221 20.0073 29.8793 19.8352 29.8278 19.6642L29.4448 19.7796ZM29.5639 20.2571C29.6588 20.735 29.6822 21.2138 29.6391 21.6829L30.0374 21.7195C30.084 21.2124 30.0587 20.6951 29.9563 20.1792L29.5639 20.2571ZM29.6391 21.6826C29.6318 21.761 29.6228 21.839 29.6119 21.9165L30.008 21.9722C30.0198 21.8882 30.0295 21.804 30.0374 21.7197L29.6391 21.6826ZM29.6118 21.9167C29.5793 22.1497 29.5304 22.3799 29.4656 22.6059L29.8501 22.7162C29.92 22.4722 29.9728 22.2237 30.008 21.972L29.6118 21.9167ZM29.4656 22.606C29.2284 23.4354 28.7791 24.2108 28.1483 24.8662L28.4365 25.1436C29.1108 24.4429 29.5943 23.6107 29.8501 22.716L29.4656 22.606ZM28.1482 24.8663C28.0337 24.9854 27.9131 25.1005 27.7865 25.2114L28.0502 25.5122C28.1851 25.394 28.314 25.2711 28.4366 25.1435L28.1482 24.8663ZM27.7865 25.2114C27.3438 25.5992 26.8299 25.9336 26.2528 26.1969L26.4189 26.5608C27.0308 26.2816 27.5776 25.9261 28.0501 25.5123L27.7865 25.2114ZM26.2528 26.1969L25.1606 26.6952L25.3267 27.0591L26.4188 26.5608L26.2528 26.1969ZM25.1607 26.6952C24.9462 26.7929 24.7334 26.8933 24.5223 26.9964L24.6978 27.3558C24.9057 27.2544 25.1153 27.1555 25.3266 27.0591L25.1607 26.6952ZM24.5224 26.9963C23.467 27.5109 22.454 28.0884 21.4902 28.7242L21.7105 29.0581C22.6596 28.4319 23.6576 27.863 24.6977 27.3559L24.5224 26.9963ZM21.4903 28.7241C21.1047 28.9784 20.7269 29.2421 20.3573 29.5149L20.5948 29.8367C20.9587 29.5681 21.3307 29.3085 21.7104 29.0581L21.4903 28.7241ZM20.3573 29.5149C19.8032 29.9238 19.2675 30.353 18.7518 30.8016L19.0143 31.1034C19.5218 30.6619 20.0492 30.2394 20.5948 29.8367L20.3573 29.5149ZM18.7518 30.8016C18.4079 31.1005 18.0729 31.4081 17.7472 31.7242L18.0258 32.0113C18.3462 31.7003 18.6758 31.3977 19.0142 31.1035L18.7518 30.8016ZM17.7473 31.7242C17.4216 32.04 17.1053 32.3641 16.7985 32.6963L17.0923 32.9677C17.3942 32.6409 17.7053 32.3221 18.0257 32.0113L17.7473 31.7242ZM16.7985 32.6963C16.6451 32.8622 16.4942 33.0302 16.3457 33.2003L16.647 33.4634C16.793 33.2962 16.9415 33.1309 17.0923 32.9677L16.7985 32.6963ZM15.0072 31.4959C12.9412 29.5445 10.5159 27.9196 7.83207 26.6952L7.66605 27.0591C10.3112 28.2658 12.6995 29.8664 14.7325 31.7867L15.0072 31.4959ZM7.83208 26.6952L6.74009 26.1969L6.57404 26.5608L7.66603 27.0591L7.83208 26.6952ZM6.74011 26.1969C5.80879 25.7719 5.04209 25.1623 4.47362 24.4408L4.15944 24.6884C4.76846 25.4613 5.58651 26.1101 6.57403 26.5608L6.74011 26.1969ZM4.19229 24.7213C4.60642 25.0496 5.07123 25.3351 5.58109 25.5677L5.74712 25.2038C5.2662 24.9844 4.82915 24.7158 4.44077 24.4079L4.19229 24.7213ZM6.6731 26.066C9.75834 27.4737 12.4945 29.4171 14.7244 31.7786L15.0152 31.504C12.7484 29.1034 9.96943 27.1304 6.83914 25.7021L6.6731 26.066ZM24.3901 0.807349C18.6026 2.42109 12.4043 2.42109 6.61674 0.807349L6.5093 1.19265C12.3671 2.82599 18.6397 2.82599 24.4976 1.19265L24.3901 0.807349ZM6.43225 0.848679L0.869226 5.65632L1.13077 5.95896L6.69379 1.15132L6.43225 0.848679ZM0.824162 5.90293C2.97715 9.87563 3.45507 14.4096 2.17194 18.6713L2.55495 18.7866C3.86932 14.4212 3.37878 9.77721 1.17584 5.71234L0.824162 5.90293ZM2.17194 18.6713C1.34494 21.4181 2.78348 24.2912 5.58109 25.5677L5.74713 25.2038C3.10838 23.9998 1.79265 21.3186 2.55495 18.7866L2.17194 18.6713ZM6.6731 26.066C10.0546 27.6089 13.0168 29.7953 15.3528 32.4705L15.6541 32.2074C13.279 29.4874 10.2699 27.2675 6.83914 25.7021L6.6731 26.066ZM15.6541 32.4705C17.9901 29.7953 20.9523 27.6089 24.3337 26.066L24.1677 25.7021C20.7369 27.2675 17.7279 29.4874 15.3528 32.2074L15.6541 32.4705ZM28.8349 18.6713C27.5516 14.4096 28.0297 9.87563 30.1827 5.90293L29.831 5.71234C27.628 9.77721 27.1374 14.4212 28.4519 18.7866L28.8349 18.6713ZM3.37214 6.41268C5.14685 10.4832 5.4246 15.042 4.15232 19.2678L4.53533 19.3831C5.83516 15.0658 5.5511 10.4096 3.73881 6.25282L3.37214 6.41268ZM4.15231 19.2678C3.62168 21.0304 4.58784 22.8413 6.43945 23.6864L6.60553 23.3225C4.89902 22.5437 4.07331 20.9178 4.53533 19.3831L4.15231 19.2678ZM6.43949 23.6864L7.53148 24.1845L7.69747 23.8206L6.60548 23.3225L6.43949 23.6864ZM7.53145 24.1845C10.4242 25.5045 13.1288 27.3362 15.3647 29.4884L15.6421 29.2002C13.3729 27.0159 10.6304 25.1589 7.6975 23.8206L7.53145 24.1845ZM23.8671 3.08214C18.3923 4.42279 12.614 4.42279 7.13967 3.08214L7.04453 3.47066C12.5814 4.82661 18.425 4.82661 23.9622 3.47066L23.8671 3.08214ZM6.96133 3.12508L3.4247 6.18142L3.68625 6.48407L7.22287 3.42773L6.96133 3.12508ZM15.5034 29.6653C15.4985 29.6653 15.4943 29.6636 15.4908 29.6602L15.2114 29.9464C15.2924 30.0255 15.3982 30.0653 15.5034 30.0653V29.6653ZM15.491 29.6603C13.228 27.4466 10.471 25.5645 7.51693 24.2166L7.35089 24.5805C10.2639 25.9097 12.9822 27.7657 15.2112 29.9463L15.491 29.6603ZM7.51689 24.2166L6.42476 23.7185L6.25879 24.0825L7.35092 24.5805L7.51689 24.2166ZM6.42481 23.7185C4.51663 22.8477 3.59129 21.0084 4.11843 19.2575L3.73541 19.1422C3.14081 21.1172 4.20135 23.1435 6.25874 24.0824L6.42481 23.7185ZM4.11843 19.2575C5.40371 14.9884 5.10406 10.3797 3.27519 6.28036L2.9099 6.44333C4.69997 10.4557 4.99282 14.9656 3.73541 19.1422L4.11843 19.2575ZM3.27509 6.28013C3.27205 6.27333 3.27378 6.26501 3.2797 6.2599L3.01828 5.95715C2.87878 6.0776 2.83472 6.27537 2.91 6.44355L3.27509 6.28013ZM3.27976 6.25985L7.02337 3.02453L6.76182 2.72189L3.01821 5.95721L3.27976 6.25985ZM7.02321 3.02466C7.02683 3.02155 7.03293 3.01939 7.04041 3.02119L7.13423 2.63235C7.00458 2.60107 6.86559 2.6324 6.76197 2.72175L7.02321 3.02466ZM7.03911 3.02087C12.5766 4.39597 18.43 4.39597 23.9676 3.02087L23.8712 2.63266C18.3969 3.99204 12.6097 3.99204 7.13552 2.63266L7.03911 3.02087ZM23.9661 3.02125C23.9743 3.01928 23.9801 3.02169 23.9832 3.02442L24.245 2.722C24.1414 2.63225 24.0024 2.60118 23.8728 2.63229L23.9661 3.02125ZM22.3641 1.71194C23.0803 1.56256 23.792 1.38936 24.4976 1.19265L24.3902 0.807346C23.6931 1.00168 22.99 1.17279 22.2824 1.32037L22.3641 1.71194ZM15.7034 32.3389L15.7034 29.8653L15.3034 29.8653L15.3034 32.3389L15.7034 32.3389ZM15.7034 3.85205V2.21756H15.3034V3.85205H15.7034ZM15.5034 2.41756C17.8052 2.41756 20.1073 2.18234 22.3641 1.71195L22.2824 1.32036C20.0528 1.78511 17.778 2.01756 15.5034 2.01756V2.41756ZM29.8308 5.71275C29.8147 5.74261 29.7974 5.77438 29.7806 5.80618L30.1342 5.99323C30.1501 5.96325 30.1659 5.93405 30.1829 5.90253L29.8308 5.71275ZM15.3891 32.1657C15.3765 32.18 15.364 32.1944 15.3525 32.2077L15.6544 32.4701C15.6668 32.4559 15.6777 32.4432 15.6891 32.4304L15.3891 32.1657ZM15.7034 29.3443L15.7034 4.28754L15.3034 4.28754L15.3034 29.3443H15.7034ZM15.7034 29.8653V29.3443H15.3034V29.8653H15.7034ZM15.7034 4.28754V3.85205H15.3034V4.28754H15.7034ZM8.90974 13.9666C9.10192 13.9969 9.27663 14.0749 9.43638 14.2037L9.68748 13.8924C9.47524 13.7212 9.23595 13.6131 8.97213 13.5715L8.90974 13.9666ZM9.4388 14.2056C9.60648 14.3366 9.73723 14.4985 9.83209 14.6935L10.1918 14.5185C10.0706 14.2695 9.90139 14.0594 9.68506 13.8904L9.4388 14.2056ZM9.83402 14.6974C9.93336 14.8909 9.98293 15.0965 9.98293 15.317H10.3829C10.3829 15.0336 10.3185 14.7652 10.1898 14.5147L9.83402 14.6974ZM9.98293 15.317C9.98293 15.5991 9.91165 15.85 9.77056 16.0747L10.1093 16.2874C10.2922 15.9961 10.3829 15.6709 10.3829 15.317H9.98293ZM9.7717 16.0729C9.63265 16.2892 9.42622 16.4673 9.14228 16.6038L9.31559 16.9643C9.65565 16.8008 9.92322 16.5769 10.1082 16.2892L9.7717 16.0729ZM9.14377 16.6031C8.87005 16.7319 8.53744 16.8 8.13993 16.8V17.2C8.58243 17.2 8.97581 17.1242 9.31409 16.965L9.14377 16.6031ZM8.13993 16.8H5.79993V17.2H8.13993V16.8ZM5.99993 17V10.727H5.59993V17H5.99993ZM5.79993 10.927H8.04993V10.527H5.79993V10.927ZM8.04993 10.927C8.45409 10.927 8.78587 10.9954 9.05239 11.1233L9.22548 10.7627C8.892 10.6027 8.49778 10.527 8.04993 10.527V10.927ZM9.05535 11.1247C9.32595 11.2492 9.51827 11.4143 9.64433 11.616L9.98353 11.404C9.80959 11.1257 9.55192 10.9129 9.22252 10.7613L9.05535 11.1247ZM9.64433 11.616C9.77326 11.8223 9.83893 12.0552 9.83893 12.32H10.2389C10.2389 11.9849 10.1546 11.6778 9.98353 11.404L9.64433 11.616ZM9.83893 12.32C9.83893 12.6535 9.74846 12.915 9.57898 13.1194L9.88689 13.3747C10.1254 13.0871 10.2389 12.7306 10.2389 12.32H9.83893ZM9.57866 13.1198C9.40751 13.3272 9.17702 13.4813 8.87873 13.579L9.00314 13.9591C9.36485 13.8407 9.66236 13.6469 9.88721 13.3743L9.57866 13.1198ZM6.61893 13.636H7.99593V13.236H6.61893V13.636ZM7.99593 13.636C8.40922 13.636 8.75893 13.5392 9.01709 13.3179L8.75678 13.0142C8.59493 13.1529 8.35065 13.236 7.99593 13.236V13.636ZM9.01709 13.3179C9.27831 13.094 9.40193 12.7857 9.40193 12.419H9.00193C9.00193 12.6884 8.91556 12.8781 8.75678 13.0142L9.01709 13.3179ZM9.40193 12.419C9.40193 12.0524 9.27831 11.7441 9.01709 11.5202L8.75678 11.8239C8.91556 11.96 9.00193 12.1497 9.00193 12.419H9.40193ZM9.01709 11.5202C8.75795 11.2981 8.40139 11.202 7.97793 11.202V11.602C8.34648 11.602 8.59592 11.686 8.75678 11.8239L9.01709 11.5202ZM7.97793 11.202H6.61893V11.602H7.97793V11.202ZM6.41893 11.402V13.436H6.81893V11.402H6.41893ZM8.06793 16.525C8.50572 16.525 8.87534 16.422 9.15076 16.19L8.89311 15.8841C8.71253 16.0361 8.44615 16.125 8.06793 16.125V16.525ZM9.15076 16.19C9.43082 15.9542 9.56393 15.6273 9.56393 15.236H9.16393C9.16393 15.5288 9.06905 15.7359 8.89311 15.8841L9.15076 16.19ZM9.56393 15.236C9.56393 14.8363 9.42309 14.5036 9.13121 14.2628L8.87666 14.5713C9.06478 14.7265 9.16393 14.9398 9.16393 15.236H9.56393ZM9.13346 14.2647C8.84824 14.0222 8.47696 13.911 8.04093 13.911V14.311C8.40891 14.311 8.67963 14.4039 8.8744 14.5694L9.13346 14.2647ZM8.04093 13.911H6.61893V14.311H8.04093V13.911ZM6.41893 14.111V16.325H6.81893V14.111H6.41893ZM6.61893 16.525H8.06793V16.125H6.61893V16.525ZM15.3135 12.563C15.3135 13.0334 15.1537 13.4157 14.8345 13.7242L15.1125 14.0118C15.5133 13.6244 15.7135 13.1367 15.7135 12.563H15.3135ZM14.8345 13.7242C14.5325 14.016 14.0495 14.181 13.3445 14.181V14.581C14.1034 14.581 14.7064 14.4041 15.1124 14.0119L14.8345 13.7242ZM13.3445 14.181H12.1385V14.581H13.3445V14.181ZM11.9385 14.381V17H12.3385V14.381H11.9385ZM12.1385 16.8H11.3195V17.2H12.1385V16.8ZM11.5195 17V10.727H11.1195V17H11.5195ZM11.3195 10.927H13.3445V10.527H11.3195V10.927ZM13.3445 10.927C14.0227 10.927 14.5029 11.0909 14.8189 11.3862L15.092 11.0939C14.6761 10.7052 14.0822 10.527 13.3445 10.527V10.927ZM14.8201 11.3873C15.1478 11.6886 15.3135 12.0747 15.3135 12.563H15.7135C15.7135 11.9714 15.5071 11.4755 15.0908 11.0928L14.8201 11.3873ZM13.3445 13.906C13.8238 13.906 14.2189 13.8028 14.4876 13.5565L14.2173 13.2616C14.0541 13.4113 13.7772 13.506 13.3445 13.506V13.906ZM14.4876 13.5565C14.7548 13.3115 14.8765 12.9701 14.8765 12.563H14.4765C14.4765 12.8879 14.3821 13.1105 14.2173 13.2616L14.4876 13.5565ZM14.8765 12.563C14.8765 12.1375 14.7531 11.7841 14.4749 11.5415C14.2019 11.3036 13.8131 11.202 13.3445 11.202V11.602C13.7639 11.602 14.0411 11.694 14.2121 11.8431C14.3778 11.9875 14.4765 12.2146 14.4765 12.563H14.8765ZM13.3445 11.202H12.1385V11.602H13.3445V11.202ZM11.9385 11.402V13.706H12.3385V11.402H11.9385ZM12.1385 13.906H13.3445V13.506H12.1385V13.906ZM19.4904 10.727V15.362H19.8904V10.727H19.4904ZM19.4904 15.362C19.4904 15.8336 19.3469 16.1929 19.0733 16.4613L19.3534 16.7468C19.7159 16.3912 19.8904 15.9225 19.8904 15.362H19.4904ZM19.0747 16.4599C18.8007 16.7236 18.4338 16.863 17.9534 16.863V17.263C18.517 17.263 18.9901 17.0965 19.3521 16.7482L19.0747 16.4599ZM17.9534 16.863C17.4674 16.863 17.0982 16.7209 16.8244 16.4523L16.5443 16.7378C16.9065 17.0932 17.3834 17.263 17.9534 17.263V16.863ZM16.8258 16.4536C16.5531 16.1809 16.4074 15.8041 16.4074 15.299H16.0074C16.0074 15.886 16.1797 16.3732 16.543 16.7365L16.8258 16.4536ZM16.2074 15.499H17.0264V15.099H16.2074V15.499ZM16.8264 15.303C16.833 15.641 16.92 15.9352 17.1028 16.1692L17.418 15.9229C17.3008 15.7729 17.2317 15.5691 17.2263 15.2951L16.8264 15.303ZM17.1052 16.1722C17.308 16.4218 17.6028 16.534 17.9534 16.534V16.134C17.6919 16.134 17.5247 16.0543 17.4156 15.9199L17.1052 16.1722ZM17.9534 16.534C18.2993 16.534 18.5921 16.4308 18.791 16.1921L18.4837 15.936C18.3827 16.0573 18.2195 16.134 17.9534 16.134V16.534ZM18.7931 16.1896C18.9767 15.9619 19.0624 15.6811 19.0624 15.362H18.6624C18.6624 15.6069 18.5981 15.7942 18.4817 15.9385L18.7931 16.1896ZM19.0624 15.362V10.727H18.6624V15.362H19.0624ZM18.8624 10.927H19.6904V10.527H18.8624V10.927ZM23.2928 16.863C22.9023 16.863 22.5581 16.7952 22.2568 16.6637L22.0969 17.0303C22.4556 17.1869 22.8554 17.263 23.2928 17.263V16.863ZM22.2609 16.6655C21.9642 16.5282 21.7376 16.3449 21.5741 16.1181L21.2496 16.352C21.4581 16.6412 21.7415 16.8659 22.0928 17.0285L22.2609 16.6655ZM21.5753 16.1199C21.4138 15.8906 21.3292 15.627 21.3238 15.3225L20.9239 15.3296C20.9305 15.7091 21.0379 16.0515 21.2483 16.3502L21.5753 16.1199ZM21.1238 15.526H21.9968V15.126H21.1238V15.526ZM21.7979 15.3463C21.8326 15.6866 21.9734 15.9794 22.2175 16.2165L22.4962 15.9296C22.3203 15.7587 22.2211 15.5534 22.1958 15.3057L21.7979 15.3463ZM22.2217 16.2205C22.4869 16.4636 22.8545 16.57 23.2928 16.57V16.17C22.9152 16.17 22.6588 16.0785 22.492 15.9256L22.2217 16.2205ZM23.2928 16.57C23.7149 16.57 24.0728 16.4658 24.3417 16.2333L24.08 15.9308C23.9049 16.0823 23.6508 16.17 23.2928 16.17V16.57ZM24.342 16.233C24.6144 15.9965 24.7528 15.6891 24.7528 15.326H24.3528C24.3528 15.575 24.2633 15.7716 24.0797 15.931L24.342 16.233ZM24.7528 15.326C24.7528 15.0477 24.6753 14.8025 24.505 14.6089L24.2047 14.8732C24.2984 14.9796 24.3528 15.1244 24.3528 15.326H24.7528ZM24.505 14.6089C24.3507 14.4335 24.1587 14.3018 23.9331 14.213L23.7865 14.5851C23.957 14.6523 24.095 14.7485 24.2047 14.8732L24.505 14.6089ZM23.9331 14.213C23.7251 14.131 23.4499 14.0448 23.1106 13.9539L23.0071 14.3402C23.3397 14.4293 23.5986 14.5111 23.7865 14.5851L23.9331 14.213ZM23.1093 13.9535C22.7003 13.8468 22.3779 13.7417 22.1386 13.6392L21.9811 14.0069C22.2458 14.1203 22.5894 14.2313 23.0084 14.3406L23.1093 13.9535ZM22.1402 13.6399C21.9266 13.5461 21.7392 13.3995 21.5778 13.1951L21.2639 13.443C21.4625 13.6945 21.7011 13.884 21.9794 14.0062L22.1402 13.6399ZM21.5813 13.1997C21.4404 13.0102 21.3598 12.7444 21.3598 12.383H20.9598C20.9598 12.8017 21.0533 13.1599 21.2603 13.4384L21.5813 13.1997ZM21.3598 12.383C21.3598 12.0768 21.4371 11.8128 21.5878 11.5841L21.2538 11.364C21.0565 11.6633 20.9598 12.0053 20.9598 12.383H21.3598ZM21.5878 11.5841C21.7395 11.3539 21.9525 11.1734 22.2337 11.0436L22.066 10.6804C21.7232 10.8387 21.4501 11.0662 21.2538 11.364L21.5878 11.5841ZM22.2323 11.0442C22.5204 10.9138 22.8545 10.846 23.2388 10.846V10.446C22.8071 10.446 22.4153 10.5223 22.0673 10.6799L22.2323 11.0442ZM23.2388 10.846C23.7929 10.846 24.2259 10.984 24.5548 11.244L24.8029 10.9301C24.3877 10.6021 23.8608 10.446 23.2388 10.446V10.846ZM24.5561 11.2449C24.8898 11.5045 25.0761 11.8441 25.1188 12.2767L25.5169 12.2374C25.4636 11.698 25.2239 11.2576 24.8016 10.9292L24.5561 11.2449ZM25.3178 12.057H24.4178V12.457H25.3178V12.057ZM24.6163 12.2322C24.5787 11.9318 24.4201 11.6779 24.1658 11.4717L23.9139 11.7824C24.1036 11.9362 24.1969 12.1022 24.2194 12.2818L24.6163 12.2322ZM24.1683 11.4737C23.9016 11.2503 23.5581 11.148 23.1578 11.148V11.548C23.4896 11.548 23.7341 11.6318 23.9114 11.7803L24.1683 11.4737ZM23.1578 11.148C22.7796 11.148 22.4521 11.2483 22.1928 11.4644L22.4489 11.7717C22.6216 11.6277 22.8521 11.548 23.1578 11.548V11.148ZM22.1954 11.4623C21.925 11.6801 21.7968 11.9875 21.7968 12.356H22.1968C22.1968 12.0886 22.2847 11.904 22.4463 11.7738L22.1954 11.4623ZM21.7968 12.356C21.7968 12.6227 21.8715 12.8586 22.0353 13.0457L22.3364 12.7823C22.2481 12.6815 22.1968 12.5454 22.1968 12.356H21.7968ZM22.0384 13.0492C22.1906 13.2152 22.3737 13.3427 22.5855 13.4315L22.7402 13.0626C22.5799 12.9954 22.4451 12.9009 22.3333 12.7789L22.0384 13.0492ZM22.5926 13.4343C22.7924 13.5092 23.0657 13.595 23.4098 13.6916L23.5179 13.3065C23.178 13.2111 22.9173 13.1289 22.7331 13.0598L22.5926 13.4343ZM23.4107 13.6919C23.8195 13.8044 24.1416 13.9152 24.3804 14.0233L24.5453 13.6588C24.2801 13.5389 23.9361 13.4217 23.5169 13.3062L23.4107 13.6919ZM24.3841 14.0249C24.6022 14.1184 24.7915 14.2669 24.9523 14.476L25.2694 14.2321C25.0702 13.9731 24.8275 13.7797 24.5416 13.6572L24.3841 14.0249ZM24.9539 14.478C25.0974 14.6598 25.1808 14.9228 25.1808 15.29H25.5808C25.5808 14.8653 25.4843 14.5043 25.2678 14.2301L24.9539 14.478ZM25.1808 15.29C25.1808 15.5587 25.1103 15.8113 24.9663 16.0511L25.3093 16.2569C25.4894 15.9568 25.5808 15.6334 25.5808 15.29H25.1808ZM24.9663 16.0511C24.8257 16.2856 24.6148 16.4808 24.3244 16.6342L24.5113 16.9879C24.8569 16.8053 25.126 16.5625 25.3093 16.2569L24.9663 16.0511ZM24.3244 16.6342C24.0405 16.7842 23.6988 16.863 23.2928 16.863V17.263C23.7509 17.263 24.1592 17.1739 24.5113 16.9879L24.3244 16.6342Z" fill="#121111" mask="url(#path-1-outside-1_946_287)"/>
</g>
</svg>
