<svg width="28" height="31" viewBox="0 0 28 31" fill="none" xmlns="http://www.w3.org/2000/svg">
<g id="Vector">
<path d="M19.5409 24.1747C18.2844 22.0529 16.9745 21.1196 14.9754 22.2434L14.4594 22.5481C11.2056 22.4967 9.38356 18.3063 8.76377 17.5692C8.41712 16.6721 5.62064 13.0589 7.14021 10.1809L7.65619 9.87617C9.60298 8.66478 9.41537 7.06674 8.15884 4.94396C7.04135 3.05622 6.47795 1.3039 4.8321 2.27815L3.80014 2.88879C2.53542 3.63753 1.58269 4.6653 1.04557 5.74031C1.04557 5.74031 -0.585996 8.44193 0.227119 12.1199C0.442159 13.0932 0.813575 14.0017 1.30841 14.8379L7.57238 25.4204C8.06722 26.2565 8.68378 27.0184 9.43327 27.6755C12.2673 30.1592 15.4203 30.0278 15.4203 30.0278C16.6212 30.0735 17.9806 29.7345 19.2453 28.986L20.2773 28.3745C21.9233 27.3993 20.6584 26.0623 19.5409 24.1747Z" fill="#4C6883"/>
<path d="M16.7938 13.0141L15.2048 16.4722L18.4761 14.1356L16.7938 13.0141Z" fill="#F9AA0C"/>
<path d="M28 7.50008C28 3.35798 24.6421 0 20.5001 0C16.3578 0 13 3.35798 13 7.50008C13 11.6422 16.3578 15 20.5001 15C24.6421 15 28 11.6422 28 7.50008Z" fill="#F9AA0C"/>
<path d="M18.0653 7.49999C18.0653 7.16444 17.7933 6.89243 17.4579 6.89243C17.1223 6.89243 16.8503 7.16444 16.8503 7.49999C16.8503 7.83554 17.1223 8.10755 17.4579 8.10755C17.7933 8.10755 18.0653 7.83554 18.0653 7.49999Z" fill="white"/>
<path d="M21.1005 7.49999C21.1005 7.16444 20.8284 6.89243 20.493 6.89243C20.1575 6.89243 19.8855 7.16444 19.8855 7.49999C19.8855 7.83554 20.1575 8.10755 20.493 8.10755C20.8284 8.10755 21.1005 7.83554 21.1005 7.49999Z" fill="white"/>
<path d="M24.1499 7.49999C24.1499 7.16444 23.8778 6.89243 23.5423 6.89243C23.2067 6.89243 22.9347 7.16444 22.9347 7.49999C22.9347 7.83554 23.2067 8.10755 23.5423 8.10755C23.8778 8.10755 24.1499 7.83554 24.1499 7.49999Z" fill="white"/>
</g>
</svg>
