<svg width="47" height="47" viewBox="0 0 47 47" fill="none" xmlns="http://www.w3.org/2000/svg">
<g id="Checkmark">
<path id="Vector" d="M23.5 3.9165C12.7018 3.9165 3.91669 12.7016 3.91669 23.4998C3.91669 34.2981 12.7018 43.0832 23.5 43.0832C34.2983 43.0832 43.0834 34.2981 43.0834 23.4998C43.0834 21.2948 42.6995 19.1802 42.0239 17.2003L38.8531 20.3711C39.0587 21.3816 39.1667 22.4286 39.1667 23.4998C39.1667 32.138 32.1382 39.1665 23.5 39.1665C14.8618 39.1665 7.83335 32.138 7.83335 23.4998C7.83335 14.8616 14.8618 7.83317 23.5 7.83317C26.698 7.83317 29.6725 8.80037 32.1557 10.4532L34.9593 7.64958C31.732 5.31133 27.779 3.9165 23.5 3.9165ZM41.6988 6.44857L21.5417 26.6056L15.093 20.1569L12.3238 22.9261L21.5417 32.144L44.468 9.21777L41.6988 6.44857Z" fill="#32D100"/>
</g>
</svg>
