<svg width="35" height="42" viewBox="0 0 35 42" fill="none" xmlns="http://www.w3.org/2000/svg">
<g id="Group 2409">
<path id="path4068" d="M17.2755 6.05484C17.2755 2.7669 14.6511 0.105688 11.3855 0.016922V-0.000108719H10.0549V0.117355C7.27 0.66161 5.1665 3.1103 5.1665 6.05484C5.1665 8.99937 7.27 11.4472 10.0549 11.9914V12.1044H11.173L11.2206 12.1089L11.269 12.1044H11.3855V12.0928C14.6511 12.0031 17.2755 9.34188 17.2755 6.05484Z" fill="#FF9831"/>
<path id="path4070" d="M16.1097 6.05484C16.1097 9.39837 13.3992 12.1089 10.0548 12.1089C6.71125 12.1089 4.00073 9.39837 4.00073 6.05484C4.00073 2.71041 6.71125 -0.000108719 10.0548 -0.000108719C13.3992 -0.000108719 16.1097 2.71041 16.1097 6.05484Z" fill="#FFD833"/>
<path id="path4072" d="M10.4172 11.5642C7.3749 11.5561 4.91454 9.08323 4.92261 6.04007C4.93068 2.9978 7.40359 0.537445 10.4467 0.545515C13.489 0.553585 15.9494 3.02648 15.9413 6.06964C15.9332 9.11191 13.4594 11.5723 10.4172 11.5642ZM10.4476 0.000356674C7.10411 -0.00860977 4.38643 2.69474 4.37746 6.03917C4.3685 9.3827 7.07183 12.1004 10.4154 12.1094C13.7598 12.1183 16.4775 9.41497 16.4864 6.07144C16.4954 2.72701 13.7921 0.00932312 10.4476 0.000356674Z" fill="#FF9831"/>
<path id="path4074" d="M11.0096 8.12497C10.8993 8.12497 9.67181 8.12497 9.67181 8.12497V6.44827C9.67181 6.44827 10.8885 6.44827 11.0096 6.44827C11.1306 6.44827 11.8596 6.50475 11.8596 7.26419C11.8596 8.02364 11.119 8.12497 11.0096 8.12497ZM9.67181 4.03633C9.67181 4.03633 10.7182 4.03633 10.8347 4.03633C10.9504 4.03633 11.5736 4.08565 11.5736 4.74557C11.5736 5.40549 10.9746 5.49514 10.8347 5.49514C10.694 5.49514 9.67181 5.49514 9.67181 5.49514V4.03633ZM11.9475 5.80986C11.9475 5.80986 13.0396 5.43058 13.0019 4.37166C12.9544 2.99892 11.1495 3.07065 11.1495 3.07065H11.0732V1.79475H10.4304V3.07065H9.70588V1.79475H9.063V3.07065H7.4643V3.76016H8.41025V8.2729H7.44458V9.0225C7.44458 9.0225 8.22555 9.0225 9.063 9.0225V10.3154H9.70588V9.0225C9.96859 9.0225 10.2179 9.0225 10.4304 9.0225V10.3154H11.0732V9.0225C11.4758 9.0225 13.2377 9.00903 13.3946 7.526C13.5757 5.81344 11.9475 5.80986 11.9475 5.80986Z" fill="#FF9831"/>
<path id="path4076" d="M10.6385 8.12497C10.5282 8.12497 9.30072 8.12497 9.30072 8.12497V6.44827C9.30072 6.44827 10.5174 6.44827 10.6385 6.44827C10.7595 6.44827 11.4885 6.50475 11.4885 7.26419C11.4885 8.02364 10.7479 8.12497 10.6385 8.12497ZM9.30072 4.03633C9.30072 4.03633 10.3471 4.03633 10.4637 4.03633C10.5793 4.03633 11.2025 4.08565 11.2025 4.74557C11.2025 5.40549 10.6035 5.49514 10.4637 5.49514C10.3229 5.49514 9.30072 5.49514 9.30072 5.49514V4.03633ZM11.4293 5.80986C11.4293 5.80986 12.6685 5.43058 12.6308 4.37166C12.5833 2.99892 10.7784 3.07065 10.7784 3.07065H10.7022V1.79475H10.0593V3.07065H9.33568V1.79475H8.69191V3.07065H7.09322V3.76016H8.03916V8.2729H7.07349V9.0225C7.07349 9.0225 7.85446 9.0225 8.69191 9.0225V10.3154H9.33568V9.0225C9.5975 9.0225 9.84677 9.0225 10.0593 9.0225V10.3154H10.7022V9.0225C11.1047 9.0225 12.8666 9.00903 13.0235 7.526C13.2046 5.81344 11.4293 5.80986 11.4293 5.80986Z" fill="#FFF466"/>
<path id="path4078" d="M13.0337 0.310722H11.9048C12.3047 0.438044 12.684 0.602129 13.0435 0.805664H14.1867C13.8227 0.602129 13.4389 0.437147 13.0337 0.310722Z" fill="#FF822E"/>
<path id="path4080" d="M13.8 1.31064C14.0018 1.46935 14.2071 1.62267 14.3864 1.80469H15.5225C15.4113 1.69261 15.2947 1.58501 15.1755 1.48279L14.9576 1.31064H13.8Z" fill="#FF822E"/>
<path id="path4082" d="M14.8032 2.31016C14.9323 2.47155 15.0615 2.62936 15.1735 2.8042H16.323C16.2576 2.70109 16.1894 2.59978 16.1177 2.50115L15.9626 2.31016H14.8032Z" fill="#FF822E"/>
<path id="path4084" d="M15.4482 3.30877C15.5316 3.47285 15.6222 3.63156 15.6921 3.80371H16.8398C16.7896 3.67729 16.7349 3.55444 16.6766 3.43249L16.6112 3.30877H15.4482Z" fill="#FF822E"/>
<path id="path4086" d="M15.8481 4.30869C15.8984 4.47367 15.9656 4.63237 16.0024 4.80273H17.1447C17.116 4.66824 17.0828 4.53644 17.0452 4.40464L17.0138 4.30869H15.8481Z" fill="#FF822E"/>
<path id="path4088" d="M16.0596 5.3073C16.0802 5.47139 16.1026 5.63458 16.1089 5.80225H17.2691C17.2646 5.69824 17.2575 5.59603 17.2485 5.49381L17.2261 5.3073H16.0596Z" fill="#FF822E"/>
<path id="path4090" d="M16.0596 6.80176H17.2261L17.2485 6.61525C17.2575 6.51393 17.2646 6.41083 17.2691 6.30771H16.1089C16.1026 6.47538 16.0802 6.63857 16.0596 6.80176Z" fill="#FF822E"/>
<path id="path4092" d="M15.8481 7.80127H17.0147L17.0452 7.70532C17.0828 7.57442 17.116 7.44172 17.1447 7.30723H16.0015C15.9656 7.47759 15.8984 7.63629 15.8481 7.80127Z" fill="#FF822E"/>
<path id="path4094" d="M15.4473 8.80078H16.6111L16.6766 8.67703C16.7348 8.55599 16.7895 8.43226 16.8397 8.30584H15.692C15.623 8.47889 15.5315 8.6367 15.4473 8.80078Z" fill="#FF822E"/>
<path id="path4096" d="M14.8018 9.7998H15.9629L16.118 9.60883C16.1897 9.5102 16.2579 9.40887 16.3242 9.30576H15.1739C15.0618 9.4806 14.9309 9.63841 14.8018 9.7998Z" fill="#FF822E"/>
<path id="path4098" d="M13.7974 10.7993H14.9576L15.1746 10.6281C15.2947 10.525 15.4104 10.4174 15.5225 10.3044H14.3874C14.2062 10.4873 14 10.6406 13.7974 10.7993Z" fill="#FF822E"/>
<path id="path4100" d="M11.8911 11.7988H13.0334C13.4387 11.6733 13.8225 11.5074 14.1865 11.3039H13.0361C12.6748 11.5074 12.2937 11.6715 11.8911 11.7988Z" fill="#FF822E"/>
<path id="path4102" d="M10.0549 11.5637C7.01177 11.5637 4.54604 9.0971 4.54604 6.05484C4.54604 3.01167 7.01177 0.54505 10.0549 0.54505C13.0972 0.54505 15.5638 3.01167 15.5638 6.05484C15.5638 9.0971 13.0972 11.5637 10.0549 11.5637ZM10.0549 -0.000108719C6.7105 -0.000108719 4 2.71041 4 6.05484C4 9.39837 6.7105 12.1089 10.0549 12.1089C13.3985 12.1089 16.109 9.39837 16.109 6.05484C16.109 2.71041 13.3985 -0.000108719 10.0549 -0.000108719Z" fill="#FFF466"/>
<path id="path4122" d="M14.235 2.46875C13.3868 1.48066 12.1952 0.795632 10.8439 0.60196C12.1952 0.795632 13.3877 1.47977 14.2359 2.46785L14.235 2.46875Z" fill="#FFEB5C"/>
<path id="path4124" d="M6.46737 10.2363C5.32775 9.2581 4.59252 7.82079 4.54769 6.21134C4.59252 7.82079 5.32865 9.25631 6.46917 10.2354L6.46737 10.2363ZM4.5459 6.07416C4.5459 6.06788 4.5459 6.06161 4.5459 6.05533C4.5459 6.06161 4.5459 6.06698 4.5459 6.07416Z" fill="#FFCA5A"/>
<path id="path4126" d="M6.08197 10.6216C4.8518 9.55101 4.05738 7.99268 4.00358 6.24694C4.00358 6.24605 4.00358 6.24604 4.00358 6.24515C4.00268 6.23887 4.00268 6.23258 4.00268 6.2263C4.00268 6.22451 4.00268 6.22363 4.00268 6.22183C4.00268 6.21645 4.00268 6.21196 4.00178 6.20568C4.00178 6.20389 4.00178 6.20211 4.00178 6.19942C4.00178 6.19493 4.00178 6.19044 4.00178 6.18596C4.00178 6.18327 4.00178 6.18149 4.00178 6.1788C4.00178 6.17431 4.00178 6.16982 4.00089 6.16533C4.00089 6.16264 4.00089 6.15997 4.00089 6.15728C4.00089 6.15369 4.00089 6.1492 4.00089 6.14471C4.00089 6.14202 4.00089 6.13933 4.00089 6.13664C4.00089 6.13305 4.00089 6.12858 4.00089 6.12409C4.00089 6.1223 4.00089 6.11871 4.00089 6.11602C4.00089 6.11153 4.00089 6.10796 4.00089 6.10347C4.00089 6.10078 4 6.09808 4 6.09539C4 6.09091 4 6.08644 4 6.08106C4 6.07926 4 6.07747 4 6.07567C4 6.0685 4 6.06133 4 6.05505C4 5.98332 4.00179 5.9107 4.00358 5.83987C4.11745 2.59586 6.78313 0.000104904 10.0549 0.000104904C10.0612 0.000104904 10.0684 0.000104904 10.0756 0.000104904C10.0773 0.000104904 10.0791 0.000104904 10.0818 0.000104904C10.0863 0.000104904 10.0908 0.000104904 10.0962 0.000104904C10.098 0.000104904 10.1007 0.000104904 10.1034 0.000104904C10.1078 0.000104904 10.1123 0.000104904 10.1168 0.000104904C10.1195 0.000104904 10.1213 0.000104904 10.124 0.000104904C10.1285 0.000104904 10.1329 0.00100231 10.1374 0.00100231C10.1392 0.00100231 10.1419 0.00100231 10.1446 0.00100231C10.1491 0.00100231 10.1536 0.00100231 10.1581 0.00100231C10.1607 0.00100231 10.1625 0.00100231 10.1652 0.00100231C10.1697 0.00100231 10.1742 0.00100231 10.1787 0.00100231C10.1814 0.00100231 10.1832 0.00100231 10.1859 0.00100231C10.1903 0.00100231 10.1957 0.00189972 10.2002 0.00189972C10.202 0.00189972 10.2038 0.00189972 10.2056 0.00189972C10.2119 0.00189972 10.2172 0.00190067 10.2226 0.00279713C10.2235 0.00279713 10.2244 0.00279713 10.2262 0.00279713C10.2325 0.00279713 10.2387 0.00279713 10.2459 0.00279713C10.2459 0.00279713 10.2459 0.00279713 10.2468 0.00279713C11.9926 0.0574923 13.5509 0.851901 14.6215 2.08208L14.2359 2.46763C13.3877 1.47955 12.1952 0.795412 10.844 0.60174C10.844 0.60174 10.844 0.60174 10.8431 0.60174C10.8386 0.600843 10.8341 0.599945 10.8296 0.599945C10.5768 0.56408 10.3176 0.545263 10.0549 0.545263C7.05929 0.545263 4.62316 2.93567 4.54784 5.91248C4.54605 5.96 4.54604 6.00753 4.54604 6.05505C4.54604 6.06133 4.54604 6.0676 4.54604 6.07388C4.54604 6.07567 4.54604 6.07747 4.54604 6.07926C4.54604 6.08375 4.54604 6.08822 4.54604 6.0918C4.54604 6.09449 4.54604 6.09719 4.54604 6.09898C4.54604 6.10347 4.54604 6.10707 4.54604 6.11155C4.54604 6.11334 4.54604 6.11602 4.54604 6.11871C4.54604 6.12229 4.54604 6.12589 4.54604 6.13038C4.54604 6.13217 4.54604 6.13484 4.54604 6.13664C4.54604 6.14112 4.54604 6.14472 4.54604 6.1492C4.54604 6.15099 4.54694 6.15369 4.54694 6.15638C4.54694 6.15997 4.54694 6.16444 4.54694 6.16803C4.54694 6.17072 4.54694 6.17252 4.54694 6.17431C4.54694 6.17879 4.54694 6.18327 4.54694 6.18775C4.54694 6.18954 4.54694 6.19134 4.54694 6.19314C4.54784 6.19852 4.54784 6.20389 4.54784 6.20927C4.54784 6.21017 4.54784 6.21017 4.54784 6.21106C4.59267 7.82051 5.3279 9.25783 6.46752 10.236L6.08197 10.6216Z" fill="#FFFA85"/>
<path id="path4128" d="M15.5485 5.66797C15.4974 4.92646 15.2993 4.2262 14.9836 3.59497L14.9845 3.59318C15.301 4.2253 15.4992 4.92556 15.5503 5.66707L15.5485 5.66797Z" fill="#FFEB5C"/>
<path id="path4130" d="M15.5502 5.66699C15.499 4.92548 15.3009 4.22522 14.9844 3.5931L15.3888 3.18961C15.7151 3.79574 15.9411 4.46461 16.0442 5.17295L15.5502 5.66699Z" fill="#FFFA85"/>
<path id="path4132" d="M9.66676 11.5508C8.92525 11.4988 8.22498 11.3006 7.59375 10.985L7.59465 10.9841C8.22677 11.2997 8.92704 11.4979 9.66855 11.549L9.66676 11.5508Z" fill="#FFCA5A"/>
<path id="path4134" d="M9.17231 12.0449C8.46397 11.9409 7.79509 11.7159 7.18896 11.3886L7.59335 10.9851C8.22457 11.3007 8.92484 11.4989 9.66635 11.5509L9.17231 12.0449Z" fill="#FFFA85"/>
<path id="path4146" d="M10.9353 3.07227C10.8886 3.07047 10.851 3.06957 10.8241 3.06957C10.7954 3.06957 10.7784 3.07047 10.7784 3.07047C10.7784 3.07047 10.7945 3.06957 10.8232 3.06957C10.8501 3.06957 10.8886 3.07047 10.9353 3.07227Z" fill="#FFCA5A"/>
<path id="path4156" d="M9.33567 10.3154H8.69189V9.88594L9.33567 9.24306V10.3154Z" fill="#FFFA85"/>
<path id="path4158" d="M10.7021 9.0225C10.703 9.0225 10.7048 9.0225 10.7057 9.0225C10.8348 9.0225 11.0976 9.0207 11.4015 8.97138C11.0949 9.0207 10.8304 9.0225 10.7021 9.0225Z" fill="#FFCA5A"/>
<path id="path4166" d="M13.0327 7.41638C13.0327 7.41458 13.0327 7.41191 13.0327 7.41012C13.0327 7.41281 13.0327 7.41458 13.0327 7.41638ZM13.0354 7.35092C13.0362 7.32941 13.0362 7.30789 13.0362 7.28637C13.0362 7.17429 13.0273 7.07118 13.0103 6.97614C13.03 7.09001 13.0398 7.21464 13.0354 7.35092Z" fill="#FFCA5A"/>
<path id="path4168" d="M11.4885 7.26367L11.4751 7.10317L11.476 7.10227C11.4841 7.15159 11.4885 7.20539 11.4885 7.26367Z" fill="#FFEB5C"/>
<path id="path4172" d="M13.008 6.96729C13.0073 6.966 13.0073 6.96474 13.0073 6.96345C13.0073 6.96474 13.008 6.966 13.008 6.96729Z" fill="#FFCA5A"/>
<path id="path4190" d="M10.7023 10.3154H10.0594V9.0225C9.95091 9.0225 9.83165 9.0225 9.70613 9.0225C9.65771 9.0225 9.6075 9.0225 9.5564 9.0225L10.453 8.12497C10.5472 8.12497 10.6162 8.12497 10.6386 8.12497C10.661 8.12497 10.7122 8.12049 10.7785 8.10704H10.7794V8.10614C11.0278 8.05234 11.4886 7.86314 11.4886 7.26419C11.4886 7.20591 11.4842 7.15211 11.4761 7.1028L12.457 6.12099C12.6973 6.28328 12.9089 6.52985 12.9959 6.90554C12.9959 6.90734 12.9968 6.90913 12.9968 6.91093C12.9968 6.91182 12.9968 6.91183 12.9968 6.91272C12.9977 6.91362 12.9977 6.91542 12.9986 6.91721C12.9986 6.91811 12.9986 6.91901 12.9986 6.9199C12.9995 6.9208 12.9995 6.92257 12.9995 6.92347C12.9995 6.92526 13.0004 6.92616 13.0004 6.92706C13.0004 6.92796 13.0012 6.92975 13.0012 6.93065C13.0012 6.93244 13.0012 6.93334 13.0021 6.93514C13.0021 6.93603 13.0021 6.93693 13.0021 6.93783C13.003 6.94052 13.0039 6.9423 13.0039 6.94499C13.0039 6.94589 13.0039 6.94589 13.0048 6.94678C13.0048 6.94858 13.0048 6.95038 13.0057 6.95217C13.0057 6.95307 13.0057 6.95396 13.0057 6.95486C13.0066 6.95576 13.0066 6.95756 13.0066 6.95935C13.0066 6.96025 13.0075 6.96114 13.0075 6.96204C13.0075 6.96383 13.0075 6.96561 13.0084 6.9674C13.0084 6.9683 13.0084 6.9683 13.0084 6.9683C13.0093 6.97099 13.0093 6.97279 13.0102 6.97548V6.97638C13.0273 7.07142 13.0362 7.17453 13.0362 7.28661C13.0362 7.30813 13.0362 7.32965 13.0353 7.35117C13.0353 7.35475 13.0353 7.35745 13.0353 7.36014C13.0353 7.36104 13.0353 7.36104 13.0353 7.36104C13.0353 7.36373 13.0353 7.3664 13.0353 7.36909C13.0353 7.36999 13.0344 7.36999 13.0344 7.37089C13.0344 7.37358 13.0344 7.37628 13.0344 7.37897V7.37986C13.0344 7.38614 13.0335 7.39241 13.0335 7.39869C13.0335 7.40228 13.0335 7.40497 13.0335 7.40766C13.0326 7.40856 13.0326 7.40946 13.0326 7.41036C13.0326 7.41215 13.0326 7.41482 13.0326 7.41662C13.0326 7.41751 13.0326 7.41931 13.0326 7.42021C13.0326 7.422 13.0317 7.4238 13.0317 7.42469C13.0317 7.42649 13.0317 7.42829 13.0317 7.43008C13.0317 7.43098 13.0317 7.43277 13.0317 7.43367C13.0317 7.43546 13.0308 7.43724 13.0308 7.43903C13.0308 7.43993 13.0308 7.44083 13.0308 7.44262C13.0308 7.44442 13.0308 7.44622 13.0308 7.44891C13.0281 7.47401 13.0263 7.50002 13.0237 7.52513C12.9161 8.53653 12.0643 8.86468 11.4052 8.97138C11.4044 8.97138 11.4043 8.97138 11.4043 8.97138C11.4035 8.97138 11.4026 8.97138 11.4017 8.97138C11.0977 9.0207 10.835 9.0225 10.7059 9.0225C10.705 9.0225 10.7032 9.0225 10.7023 9.0225V10.3154Z" fill="#FFFA85"/>
<path id="path4192" d="M29.152 15.865C29.152 12.5779 26.5275 9.91675 23.262 9.82708V9.81095H21.9314V9.92839C19.1465 10.4726 17.043 12.9204 17.043 15.865C17.043 18.8095 19.1465 21.2582 21.9314 21.8025V21.9146H23.0495L23.097 21.9199L23.1454 21.9146H23.262V21.9029C26.5275 21.8132 29.152 19.152 29.152 15.865Z" fill="#FF9831"/>
<path id="path4194" d="M27.9864 15.865C27.9864 19.2094 25.2759 21.9199 21.9315 21.9199C18.588 21.9199 15.8774 19.2094 15.8774 15.865C15.8774 12.5214 18.588 9.81095 21.9315 9.81095C25.2759 9.81095 27.9864 12.5214 27.9864 15.865Z" fill="#FFD833"/>
<path id="path4196" d="M22.2939 21.3748C19.2516 21.3667 16.7913 18.8929 16.7993 15.8506C16.8074 12.8075 19.2803 10.348 22.3235 10.3561C25.3657 10.3641 27.8261 12.837 27.818 15.8802C27.809 18.9225 25.3361 21.3828 22.2939 21.3748ZM22.3244 9.81093C18.9808 9.80196 16.2631 12.5053 16.2542 15.8488C16.2452 19.1933 18.9485 21.9109 22.2921 21.9199C25.6365 21.9289 28.3542 19.2255 28.3632 15.8811C28.3712 12.5376 25.6679 9.81989 22.3244 9.81093Z" fill="#FF9831"/>
<path id="path4198" d="M22.8868 17.9355C22.7765 17.9355 21.549 17.9355 21.549 17.9355V16.2579C21.549 16.2579 22.7648 16.2579 22.8868 16.2579C23.0078 16.2579 23.7368 16.3153 23.7368 17.0739C23.7368 17.8333 22.9962 17.9355 22.8868 17.9355ZM21.549 13.8469C21.549 13.8469 22.5954 13.8469 22.7119 13.8469C22.8276 13.8469 23.4508 13.8962 23.4508 14.5561C23.4508 15.216 22.8518 15.3048 22.7119 15.3048C22.5712 15.3048 21.549 15.3048 21.549 15.3048V13.8469ZM23.8247 15.6204C23.8247 15.6204 24.9167 15.2412 24.8791 14.1813C24.8316 12.8095 23.0266 12.8812 23.0266 12.8812H22.9504V11.6053H22.3075V12.8812H21.5831V11.6053H20.9402V12.8812H19.3415V13.5707H20.2874V18.0835H19.3218V18.8321C19.3218 18.8321 20.1027 18.8321 20.9402 18.8321V20.126H21.5831V18.8321C21.8458 18.8321 22.095 18.8321 22.3075 18.8321V20.126H22.9504V18.8321C23.353 18.8321 25.1149 18.8196 25.2718 17.3357C25.4529 15.624 23.8247 15.6204 23.8247 15.6204Z" fill="#FF9831"/>
<path id="path4200" d="M22.5152 17.9355C22.4049 17.9355 21.1774 17.9355 21.1774 17.9355V16.2579C21.1774 16.2579 22.3933 16.2579 22.5152 16.2579C22.6362 16.2579 23.3652 16.3153 23.3652 17.0739C23.3652 17.8333 22.6246 17.9355 22.5152 17.9355ZM21.1774 13.8469C21.1774 13.8469 22.2238 13.8469 22.3403 13.8469C22.456 13.8469 23.0792 13.8962 23.0792 14.5561C23.0792 15.216 22.4802 15.3048 22.3403 15.3048C22.1996 15.3048 21.1774 15.3048 21.1774 15.3048V13.8469ZM23.306 15.6204C23.306 15.6204 24.5452 15.2412 24.5075 14.1813C24.46 12.8095 22.6551 12.8812 22.6551 12.8812H22.5789V11.6053H21.936V12.8812H21.2115V11.6053H20.5686V12.8812H18.9699V13.5707H19.9159V18.0835H18.9502V18.8321C18.9502 18.8321 19.7312 18.8321 20.5686 18.8321V20.126H21.2115V18.8321C21.4742 18.8321 21.7235 18.8321 21.936 18.8321V20.126H22.5789V18.8321C22.9814 18.8321 24.7433 18.8196 24.9002 17.3357C25.0814 15.624 23.306 15.6204 23.306 15.6204Z" fill="#FFF466"/>
<path id="path4202" d="M24.9101 10.1212H23.7812C24.1811 10.2485 24.5604 10.4126 24.92 10.6152H26.0632C25.6991 10.4117 25.3154 10.2467 24.9101 10.1212Z" fill="#FF822E"/>
<path id="path4204" d="M25.6768 11.1212C25.8785 11.2799 26.0838 11.4332 26.2632 11.6152H27.3992C27.2871 11.5032 27.1714 11.3956 27.0522 11.2924L26.8343 11.1212H25.6768Z" fill="#FF822E"/>
<path id="path4206" d="M26.6802 12.1198C26.8084 12.2821 26.9384 12.4399 27.0505 12.6147H28.2C28.1345 12.5116 28.0664 12.4103 27.9946 12.3117L27.8395 12.1198H26.6802Z" fill="#FF822E"/>
<path id="path4208" d="M27.324 13.1202C27.4083 13.2843 27.4988 13.4421 27.5679 13.6143H28.7164C28.6662 13.4887 28.6115 13.365 28.5533 13.2439L28.4878 13.1202H27.324Z" fill="#FF822E"/>
<path id="path4210" d="M27.7246 14.1183C27.7748 14.2842 27.8421 14.442 27.8779 14.6133H29.0202C28.9924 14.4788 28.9593 14.3461 28.9216 14.2152L28.8902 14.1183H27.7246Z" fill="#FF822E"/>
<path id="path4212" d="M27.9365 15.1183C27.9562 15.2823 27.9787 15.4455 27.9858 15.6123H29.1461C29.1416 15.5092 29.1344 15.407 29.1255 15.3047L29.103 15.1183H27.9365Z" fill="#FF822E"/>
<path id="path4214" d="M27.9365 16.6123H29.103L29.1255 16.4258C29.1344 16.3236 29.1416 16.2214 29.1461 16.1183H27.9858C27.9796 16.2859 27.9571 16.4482 27.9365 16.6123Z" fill="#FF822E"/>
<path id="path4216" d="M27.7246 17.6118H28.8902L28.9216 17.5159C28.9593 17.385 28.9924 17.2523 29.0211 17.1178H27.8779C27.8421 17.2881 27.7748 17.4459 27.7246 17.6118Z" fill="#FF822E"/>
<path id="path4218" d="M27.324 18.6113H28.4878L28.5533 18.4876C28.6115 18.3665 28.6662 18.2428 28.7164 18.1164H27.5688C27.4997 18.2885 27.4083 18.4472 27.324 18.6113Z" fill="#FF822E"/>
<path id="path4220" d="M26.6782 19.6104H27.8394L27.9945 19.4194C28.0662 19.3208 28.1343 19.2194 28.1998 19.1163H27.0503C26.9382 19.2912 26.8073 19.449 26.6782 19.6104Z" fill="#FF822E"/>
<path id="path4222" d="M25.6741 20.6104H26.8343L27.0513 20.4391C27.1714 20.336 27.2871 20.2284 27.3992 20.1154H26.2641C26.0829 20.2983 25.8758 20.4516 25.6741 20.6104Z" fill="#FF822E"/>
<path id="path4224" d="M23.7678 21.6089H24.9101C25.3154 21.4834 25.6992 21.3184 26.0632 21.1148H24.9128C24.5515 21.3184 24.1695 21.4825 23.7678 21.6089Z" fill="#FF822E"/>
<path id="path4226" d="M21.9314 21.3748C18.8882 21.3748 16.4216 18.9081 16.4216 15.865C16.4216 12.8227 18.8882 10.3561 21.9314 10.3561C24.9737 10.3561 27.4403 12.8227 27.4403 15.865C27.4403 18.9081 24.9737 21.3748 21.9314 21.3748ZM21.9314 9.81095C18.587 9.81095 15.8765 12.5214 15.8765 15.865C15.8765 19.2094 18.587 21.9199 21.9314 21.9199C25.2749 21.9199 27.9854 19.2094 27.9854 15.865C27.9854 12.5214 25.2749 9.81095 21.9314 9.81095Z" fill="#FFF466"/>
<path id="path4228" d="M22.5152 17.9355C22.4049 17.9355 21.1774 17.9355 21.1774 17.9355V16.2579C21.1774 16.2579 22.3933 16.2579 22.5152 16.2579C22.6362 16.2579 23.3652 16.3153 23.3652 17.0739C23.3652 17.8333 22.6246 17.9355 22.5152 17.9355ZM21.1774 13.8469C21.1774 13.8469 22.2238 13.8469 22.3403 13.8469C22.456 13.8469 23.0792 13.8962 23.0792 14.5561C23.0792 15.216 22.4802 15.3048 22.3403 15.3048C22.1996 15.3048 21.1774 15.3048 21.1774 15.3048V13.8469ZM23.306 15.6204C23.306 15.6204 24.5452 15.2412 24.5075 14.1813C24.46 12.8095 22.6551 12.8812 22.6551 12.8812H22.5789V11.6053H21.936V12.8812H21.2115V11.6053H20.5686V12.8812H18.9699V13.5707H19.9159V18.0835H18.9502V18.8321C18.9502 18.8321 19.7312 18.8321 20.5686 18.8321V20.126H21.2115V18.8321C21.4742 18.8321 21.7235 18.8321 21.936 18.8321V20.126H22.5789V18.8321C22.9814 18.8321 24.7433 18.8196 24.9002 17.3357C25.0814 15.624 23.306 15.6204 23.306 15.6204Z" fill="#FFF466"/>
<path id="path4242" d="M26.1117 12.2793C25.2635 11.2912 24.071 10.6062 22.7206 10.4116C24.0719 10.6062 25.2644 11.2903 26.1126 12.2784L26.1117 12.2793Z" fill="#FFEB5C"/>
<path id="path4244" d="M18.3443 20.0469C17.2046 19.0678 16.4694 17.6313 16.4246 16.0219C16.4694 17.6313 17.2055 19.0669 18.3452 20.046L18.3443 20.0469ZM16.4246 16.0201C16.4246 16.0138 16.4237 16.0093 16.4237 16.004C16.4237 16.0093 16.4246 16.0147 16.4246 16.0201Z" fill="#FFCA5A"/>
<path id="path4246" d="M17.9584 20.4326C16.7283 19.362 15.9339 17.8028 15.8801 16.058C15.8792 16.0571 15.8792 16.0562 15.8792 16.0562C15.8792 16.0499 15.8792 16.0427 15.8792 16.0373C15.8792 16.0355 15.8792 16.0337 15.8792 16.0328C15.8792 16.0275 15.8783 16.0221 15.8783 16.0167C15.8783 16.0149 15.8783 16.0131 15.8783 16.0104C15.8783 16.0059 15.8783 16.0015 15.8783 15.997C15.8783 15.9943 15.8783 15.9916 15.8783 15.9898C15.8774 15.9853 15.8774 15.9808 15.8774 15.9763C15.8774 15.9737 15.8774 15.971 15.8774 15.9683C15.8774 15.9647 15.8774 15.9602 15.8774 15.9557C15.8774 15.953 15.8774 15.9504 15.8774 15.9477C15.8774 15.9441 15.8774 15.9396 15.8774 15.9351C15.8774 15.9324 15.8774 15.9297 15.8774 15.9271C15.8765 15.9226 15.8765 15.9181 15.8765 15.9145C15.8765 15.9118 15.8765 15.9091 15.8765 15.9064C15.8765 15.9019 15.8765 15.8974 15.8765 15.8921C15.8765 15.8903 15.8765 15.8876 15.8765 15.8858C15.8765 15.8795 15.8765 15.8723 15.8765 15.8652C15.8765 15.7934 15.8783 15.7217 15.8801 15.6509C15.993 12.4069 18.6587 9.81114 21.9314 9.81114C21.9377 9.81114 21.9449 9.81114 21.952 9.81114C21.9538 9.81114 21.9556 9.81114 21.9574 9.81114C21.9628 9.81114 21.9673 9.81114 21.9718 9.81114C21.9744 9.81114 21.9771 9.81114 21.9798 9.81114C21.9843 9.81114 21.9888 9.81114 21.9924 9.81114C21.9951 9.81114 21.9978 9.81114 22.0004 9.81114C22.0049 9.81114 22.0094 9.81114 22.0139 9.81114C22.0157 9.81114 22.0184 9.81114 22.0211 9.81114C22.0256 9.81114 22.03 9.81114 22.0345 9.81114C22.0363 9.81204 22.039 9.81202 22.0417 9.81202C22.0462 9.81202 22.0507 9.81202 22.0551 9.81202C22.0578 9.81202 22.0596 9.81202 22.0623 9.81202C22.0668 9.81202 22.0713 9.81291 22.0767 9.81291C22.0785 9.81291 22.0802 9.81291 22.082 9.81291C22.0874 9.81291 22.0937 9.81291 22.0991 9.81291C22.1 9.81291 22.1009 9.81291 22.1027 9.81291C22.1089 9.81291 22.1152 9.81381 22.1224 9.81381C23.869 9.86851 25.4274 10.6629 26.4979 11.8931L26.1124 12.2786C25.2642 11.2906 24.0717 10.6064 22.7204 10.4119C22.7204 10.4119 22.7204 10.4119 22.7195 10.4119C22.7151 10.4119 22.7106 10.411 22.7061 10.4101C22.4533 10.3751 22.1941 10.3563 21.9314 10.3563C18.9358 10.3563 16.4996 12.7467 16.4234 15.7235C16.4225 15.771 16.4216 15.8176 16.4216 15.8652C16.4216 15.8714 16.4216 15.8777 16.4216 15.8849C16.4216 15.8858 16.4216 15.8876 16.4216 15.8894C16.4216 15.8939 16.4225 15.8993 16.4225 15.9028C16.4225 15.9055 16.4225 15.9073 16.4225 15.91C16.4225 15.9136 16.4225 15.9181 16.4225 15.9217C16.4225 15.9244 16.4225 15.9271 16.4225 15.9297C16.4225 15.9333 16.4225 15.9369 16.4225 15.9405C16.4225 15.9432 16.4225 15.9459 16.4225 15.9477C16.4225 15.9522 16.4225 15.9557 16.4225 15.9602C16.4225 15.962 16.4225 15.9647 16.4225 15.9665C16.4234 15.971 16.4234 15.9746 16.4234 15.979C16.4234 15.9808 16.4234 15.9835 16.4234 15.9853C16.4234 15.9898 16.4234 15.9943 16.4234 15.9988C16.4234 16.0006 16.4234 16.0024 16.4234 16.0041C16.4234 16.0095 16.4243 16.014 16.4243 16.0203C16.4243 16.0203 16.4243 16.0212 16.4243 16.0221C16.4691 17.6315 17.2044 19.0679 18.344 20.0471L17.9584 20.4326Z" fill="#FFFA85"/>
<path id="path4248" d="M27.4252 15.4785C27.3741 14.737 27.176 14.0367 26.8604 13.4046L26.8612 13.4037C27.1769 14.0349 27.375 14.7361 27.427 15.4776L27.4252 15.4785Z" fill="#FFEB5C"/>
<path id="path4250" d="M27.4271 15.478C27.3751 14.7365 27.1769 14.0353 26.8613 13.4041L27.2657 13.0006C27.5921 13.6067 27.8171 14.2756 27.9211 14.984L27.4271 15.478Z" fill="#FFFA85"/>
<path id="path4252" d="M21.5432 21.3613C20.8017 21.3093 20.1014 21.1112 19.4702 20.7955L19.4711 20.7947C20.1023 21.1103 20.8035 21.3075 21.545 21.3595L21.5432 21.3613Z" fill="#FFCA5A"/>
<path id="path4254" d="M21.0493 21.856C20.3409 21.7519 19.672 21.526 19.0659 21.1996L19.4703 20.7961C20.1015 21.1117 20.8018 21.3099 21.5433 21.3619L21.0493 21.856Z" fill="#FFFA85"/>
<path id="path4262" d="M22.8122 12.8828C22.7656 12.881 22.7279 12.8801 22.701 12.8801C22.6715 12.8801 22.6553 12.881 22.6553 12.881C22.6553 12.881 22.6715 12.8801 22.7001 12.8801C22.727 12.8801 22.7656 12.881 22.8122 12.8828Z" fill="#FFCA5A"/>
<path id="path4272" d="M21.2115 20.126H20.5686V19.6965L21.2115 19.0536V20.126Z" fill="#FFFA85"/>
<path id="path4274" d="M22.5791 18.8321C22.58 18.8321 22.5818 18.8321 22.5827 18.8321C22.7486 18.8321 23.1359 18.8295 23.5484 18.7272C23.1332 18.8304 22.7432 18.8321 22.5791 18.8321Z" fill="#FFCA5A"/>
<path id="path4284" d="M23.3653 17.0742L23.3518 16.9146L23.3527 16.9128C23.3608 16.963 23.3653 17.0168 23.3653 17.0742Z" fill="#FFEB5C"/>
<path id="path4286" d="M22.579 20.126H21.9361V18.8321C21.8267 18.8321 21.7084 18.8321 21.5828 18.8321C21.5344 18.8321 21.4842 18.8321 21.4331 18.8321L22.3297 17.9355C22.4239 17.9355 22.4929 17.9355 22.5153 17.9355C22.5171 17.9355 22.5207 17.9355 22.5234 17.9355C22.6588 17.9301 23.3653 17.8154 23.3653 17.0739C23.3653 17.0165 23.3609 16.9627 23.3528 16.9125L24.3337 15.9315C24.6879 16.17 24.9793 16.5915 24.9004 17.3357C24.8089 18.1937 24.1831 18.5596 23.5922 18.7156C23.5922 18.7165 23.5913 18.7165 23.5913 18.7165C23.5895 18.7165 23.5886 18.7174 23.5868 18.7174C23.5859 18.7174 23.5859 18.7174 23.585 18.7183C23.5841 18.7183 23.5823 18.7183 23.5814 18.7192C23.5805 18.7192 23.5796 18.7192 23.5787 18.7201C23.5778 18.7201 23.577 18.7201 23.5761 18.7201C23.5752 18.721 23.5743 18.721 23.5734 18.721C23.5725 18.721 23.5716 18.7219 23.5707 18.7219C23.5689 18.7219 23.568 18.7228 23.5662 18.7228C23.5662 18.7228 23.5662 18.7228 23.5653 18.7228C23.5635 18.7237 23.5626 18.7237 23.5608 18.7246C23.5599 18.7246 23.5599 18.7246 23.559 18.7246C23.5554 18.7255 23.5518 18.7263 23.5483 18.7272C23.1358 18.8295 22.7485 18.8321 22.5826 18.8321C22.5817 18.8321 22.5799 18.8321 22.579 18.8321V20.126Z" fill="#FFFA85"/>
<path id="path4288" d="M33.3107 41.6963H4.77191C4.15592 41.6963 3.65649 41.1969 3.65649 40.5809V18.2853C3.65649 17.6702 4.15592 17.1708 4.77191 17.1708H33.3107C33.9258 17.1708 34.4253 17.6702 34.4253 18.2853V40.5809C34.4253 41.1969 33.9258 41.6963 33.3107 41.6963Z" fill="#B25916"/>
<path id="path4290" d="M32.2553 41.6963H3.71649C3.1005 41.6963 2.60107 41.1969 2.60107 40.5809V18.2853C2.60107 17.6702 3.1005 17.1708 3.71649 17.1708H32.2553C32.8704 17.1708 33.3698 17.6702 33.3698 18.2853V40.5809C33.3698 41.1969 32.8704 41.6963 32.2553 41.6963Z" fill="#9E480D"/>
<path id="path4292" d="M30.7085 41.6963H2.16969C1.5546 41.6963 1.05518 41.1969 1.05518 40.5809V18.2853C1.05518 17.6702 1.5546 17.1708 2.16969 17.1708H30.7085C31.3245 17.1708 31.8239 17.6702 31.8239 18.2853V40.5809C31.8239 41.1969 31.3245 41.6963 30.7085 41.6963Z" fill="#B25916"/>
<path id="path4294" d="M29.6534 41.6963H1.11452C0.499428 41.6963 0 41.1969 0 40.5809V18.2853C0 17.6702 0.499428 17.1708 1.11452 17.1708H29.6534C30.2693 17.1708 30.7688 17.6702 30.7688 18.2853V40.5809C30.7688 41.1969 30.2693 41.6963 29.6534 41.6963Z" fill="#CC6E21"/>
<path id="path4296" d="M1.65168 18.3767H0.743393L0.652832 18.2853L0.743393 18.1947H1.65168L1.74224 18.2853L1.65168 18.3767ZM3.46825 18.3767H2.55997L2.46941 18.2853L2.55997 18.1947H3.46825L3.55881 18.2853L3.46825 18.3767ZM5.28483 18.3767H4.37654L4.28598 18.2853L4.37654 18.1947H5.28483L5.37539 18.2853L5.28483 18.3767ZM7.1023 18.3767H6.19401L6.10345 18.2853L6.19401 18.1947H7.1023L7.19196 18.2853L7.1023 18.3767ZM8.91887 18.3767H8.01058L7.92002 18.2853L8.01058 18.1947H8.91887L9.00943 18.2853L8.91887 18.3767ZM10.7354 18.3767H9.82716L9.7366 18.2853L9.82716 18.1947H10.7354L10.826 18.2853L10.7354 18.3767ZM12.552 18.3767H11.6437L11.5532 18.2853L11.6437 18.1947H12.552L12.6426 18.2853L12.552 18.3767ZM14.3686 18.3767H13.4603L13.3697 18.2853L13.4603 18.1947H14.3686L14.4591 18.2853L14.3686 18.3767ZM16.1852 18.3767H15.2769L15.1863 18.2853L15.2769 18.1947H16.1852L16.2757 18.2853L16.1852 18.3767ZM18.0017 18.3767H17.0934L17.0029 18.2853L17.0934 18.1947H18.0017L18.0923 18.2853L18.0017 18.3767ZM19.8183 18.3767H18.91L18.8195 18.2853L18.91 18.1947H19.8183L19.9089 18.2853L19.8183 18.3767ZM21.6358 18.3767H20.7275L20.6369 18.2853L20.7275 18.1947H21.6358L21.7254 18.2853L21.6358 18.3767ZM23.4523 18.3767H22.5441L22.4535 18.2853L22.5441 18.1947H23.4523L23.5429 18.2853L23.4523 18.3767ZM25.2689 18.3767H24.3606L24.2701 18.2853L24.3606 18.1947H25.2689L25.3595 18.2853L25.2689 18.3767ZM27.0855 18.3767H26.1772L26.0866 18.2853L26.1772 18.1947H27.0855L27.1761 18.2853L27.0855 18.3767ZM28.8967 18.4288L28.8671 18.4243C28.7747 18.392 28.6761 18.3767 28.5766 18.3767H27.9938L27.9032 18.2853L27.9938 18.1947H28.5766C28.6967 18.1947 28.8133 18.2145 28.9263 18.2521L28.9828 18.3669L28.8967 18.4288ZM29.5799 19.9458L29.4894 19.8544V19.2886C29.4894 19.1846 29.4714 19.0815 29.4365 18.9829L29.492 18.8672L29.6086 18.9228C29.6499 19.0403 29.6705 19.164 29.6705 19.2886V19.8544L29.5799 19.9458ZM29.5799 21.7624L29.4894 21.671V20.7636L29.5799 20.6721L29.6705 20.7636V21.671L29.5799 21.7624ZM29.5799 23.579L29.4894 23.4884V22.5802L29.5799 22.4887L29.6705 22.5802V23.4884L29.5799 23.579ZM29.5799 25.3956L29.4894 25.305V24.3967L29.5799 24.3053L29.6705 24.3967V25.305L29.5799 25.3956ZM29.5799 27.2121L29.4894 27.1216V26.2133L29.5799 26.1227L29.6705 26.2133V27.1216L29.5799 27.2121ZM29.5799 29.0287L29.4894 28.9382V28.0299L29.5799 27.9393L29.6705 28.0299V28.9382L29.5799 29.0287ZM29.5799 30.8453L29.4894 30.7547V29.8465L29.5799 29.7559L29.6705 29.8465V30.7547L29.5799 30.8453ZM29.5799 32.6628L29.4894 32.5713V31.663L29.5799 31.5725L29.6705 31.663V32.5713L29.5799 32.6628ZM29.5799 34.4793L29.4894 34.3879V33.4796L29.5799 33.389L29.6705 33.4796V34.3879L29.5799 34.4793ZM29.5799 36.2959L29.4894 36.2044V35.2971L29.5799 35.2056L29.6705 35.2971V36.2044L29.5799 36.2959ZM29.5799 38.1125L29.4894 38.0219V37.1136L29.5799 37.0222L29.6705 37.1136V38.0219L29.5799 38.1125ZM29.5467 39.9264L29.5243 39.9237L29.4589 39.8134L29.4894 39.5785V38.9293L29.5799 38.8388L29.6705 38.9293V39.5785C29.6705 39.6726 29.6588 39.7668 29.6346 39.8582L29.5467 39.9264ZM1.73417 40.6724H0.825886L0.735326 40.5809L0.825886 40.4903H1.73417L1.82473 40.5809L1.73417 40.6724ZM3.55075 40.6724H2.64246L2.5519 40.5809L2.64246 40.4903H3.55075L3.64131 40.5809L3.55075 40.6724ZM5.36732 40.6724H4.45903L4.36847 40.5809L4.45903 40.4903H5.36732L5.45787 40.5809L5.36732 40.6724ZM7.18478 40.6724H6.27649L6.18594 40.5809L6.27649 40.4903H7.18478L7.27534 40.5809L7.18478 40.6724ZM9.00135 40.6724H8.09307L8.00251 40.5809L8.09307 40.4903H9.00135L9.09192 40.5809L9.00135 40.6724ZM10.8179 40.6724H9.90964L9.81908 40.5809L9.90964 40.4903H10.8179L10.9085 40.5809L10.8179 40.6724ZM12.6345 40.6724H11.7262L11.6357 40.5809L11.7262 40.4903H12.6345L12.7251 40.5809L12.6345 40.6724ZM14.4511 40.6724H13.5428L13.4522 40.5809L13.5428 40.4903H14.4511L14.5416 40.5809L14.4511 40.6724ZM16.2676 40.6724H15.3594L15.2688 40.5809L15.3594 40.4903H16.2676L16.3582 40.5809L16.2676 40.6724ZM18.0842 40.6724H17.1759L17.0854 40.5809L17.1759 40.4903H18.0842L18.1748 40.5809L18.0842 40.6724ZM19.9008 40.6724H18.9925L18.9019 40.5809L18.9925 40.4903H19.9008L19.9914 40.5809L19.9008 40.6724ZM21.7183 40.6724H20.81L20.7194 40.5809L20.81 40.4903H21.7183L21.8079 40.5809L21.7183 40.6724ZM23.5348 40.6724H22.6266L22.536 40.5809L22.6266 40.4903H23.5348L23.6254 40.5809L23.5348 40.6724ZM25.3514 40.6724H24.4431L24.3526 40.5809L24.4431 40.4903H25.3514L25.442 40.5809L25.3514 40.6724ZM27.168 40.6724H26.2597L26.1691 40.5809L26.2597 40.4903H27.168L27.2585 40.5809L27.168 40.6724ZM28.5766 40.6724H28.0763L27.9857 40.5809L28.0763 40.4903H28.5766C28.7021 40.4903 28.8241 40.4652 28.9379 40.4159L29.0572 40.4634L29.0106 40.5827C28.8725 40.6419 28.7272 40.6724 28.5766 40.6724Z" fill="#FFA750"/>
<path id="path4298" d="M31.2395 33.917H34.4512C34.7543 33.917 35 33.6713 35 33.3683V31.6593C35 31.3562 34.7543 31.1105 34.4512 31.1105H31.2395V33.917Z" fill="#CC6E21"/>
<path id="path4300" d="M31.2395 24.9417V27.749H34.4512C34.7543 27.749 35 27.5025 35 27.1994V25.4904C35 25.1874 34.7543 24.9417 34.4512 24.9417H31.2395Z" fill="#CC6E21"/>
<path id="path4302" d="M30.5578 31.1174C29.6271 31.1174 28.8731 30.3633 28.8731 29.4326C28.8731 28.501 29.6298 27.7487 30.5578 27.7487H31.2393V24.9414H27.208C24.7279 24.9414 22.7168 26.9525 22.7168 29.4326C22.7168 31.9136 24.7279 33.9238 27.208 33.9238H31.2393V31.1174H30.5578Z" fill="#E0822D"/>
<path id="path4304" d="M27.4987 29.433C27.4987 30.2893 26.8047 30.9824 25.9493 30.9824C25.093 30.9824 24.3999 30.2893 24.3999 29.433C24.3999 28.5777 25.093 27.8837 25.9493 27.8837C26.8047 27.8837 27.4987 28.5777 27.4987 29.433Z" fill="#CC6E21"/>
<path id="path4306" d="M27.3617 29.433C27.3617 30.2131 26.7287 30.8452 25.9495 30.8452C25.1695 30.8452 24.5374 30.2131 24.5374 29.433C24.5374 28.6539 25.1695 28.0208 25.9495 28.0208C26.7287 28.0208 27.3617 28.6539 27.3617 29.433Z" fill="#FF9A2C"/>
<path id="path4308" d="M27.0639 29.433C27.0639 30.2131 26.4318 30.8452 25.6517 30.8452C24.8716 30.8452 24.2395 30.2131 24.2395 29.433C24.2395 28.6539 24.8716 28.0208 25.6517 28.0208C26.4318 28.0208 27.0639 28.6539 27.0639 29.433Z" fill="#FFCA7D"/>
<path id="path4310" d="M26.2399 28.4117C26.4058 28.7031 26.1548 29.1576 25.6786 29.4284C25.2034 29.6992 24.6834 29.6813 24.5184 29.3908C24.3525 29.0994 24.6036 28.6439 25.0797 28.3731C25.5549 28.1032 26.075 28.1203 26.2399 28.4117Z" fill="#FFD8A4"/>
<path id="path4314" d="M10.8088 22.0649H10.4053V24.2715H10.8088V22.0649Z" fill="#9E480D"/>
<path id="path4316" d="M8.4445 22.0649H8.04102V24.2715H8.4445V22.0649Z" fill="#9E480D"/>
<path id="path4318" d="M12.3826 27.1691C12.3826 28.3105 11.347 28.4639 11.104 28.4639C11.2977 28.4639 11.4492 28.4639 11.5084 28.4639C11.7505 28.4639 12.7861 28.3105 12.7861 27.1691C12.7861 26.0268 11.7092 25.9417 11.5084 25.9417C11.4573 25.9417 11.3048 25.9417 11.104 25.9417C11.3048 25.9417 12.3826 26.0268 12.3826 27.1691Z" fill="#9E480D"/>
<path id="path4320" d="M11.406 33.0132C11.6122 33.0132 11.7656 33.0132 11.8104 33.0132C11.9996 33.0132 13.28 32.8375 13.28 31.5239C13.28 30.2103 12.0193 30.1126 11.8104 30.1126C11.7611 30.1126 11.6095 30.1126 11.406 30.1126C11.6158 30.1126 12.8765 30.2103 12.8765 31.5239C12.8765 32.8375 11.5961 33.0132 11.406 33.0132Z" fill="#9E480D"/>
<path id="path4322" d="M5.2417 33.2698V34.5654C5.2417 34.5654 5.39323 34.5654 5.64608 34.5654V33.2698H5.2417Z" fill="#9E480D"/>
<path id="path4324" d="M10.4053 34.5656V36.8018H10.8088V34.5656C10.6823 34.5656 10.546 34.5656 10.4053 34.5656Z" fill="#9E480D"/>
<path id="path4326" d="M6.91211 33.2695H7.31559V25.4644H6.91211V33.2695Z" fill="#9E480D"/>
<path id="path4328" d="M8.04102 34.5656V36.8018H8.4445V34.5656C8.30911 34.5656 8.17461 34.5656 8.04102 34.5656Z" fill="#9E480D"/>
<path id="path4330" d="M5.68026 24.2718H5.27588V25.4644H5.68026V24.2718Z" fill="#9E480D"/>
</g>
</svg>
