<svg width="25" height="45" viewBox="0 0 25 45" fill="none" xmlns="http://www.w3.org/2000/svg">
<g id="Group 2407">
<path id="path76" d="M22.0406 -2.28882e-05H2.95947C1.32509 -2.28882e-05 0 1.32496 0 2.95934V41.6483C0 43.2829 1.32509 44.6079 2.95947 44.6079H22.0406C23.675 44.6079 25 43.2829 25 41.6483V2.95934C25 1.32496 23.675 -2.28882e-05 22.0406 -2.28882e-05Z" fill="#4C6883"/>
<path id="path78" d="M2.448 38.5521V3.51559C2.448 3.4871 2.47114 3.46418 2.49942 3.46418H22.5006C22.5291 3.46418 22.552 3.4871 22.552 3.51538V38.5521C22.552 38.5806 22.5291 38.6035 22.5006 38.6035H2.49942C2.47114 38.6035 2.448 38.5806 2.448 38.5521Z" fill="#FFFFFC"/>
<path id="path80" d="M14.5951 41.7133C14.5951 40.5563 13.6571 39.6185 12.5001 39.6185C11.3431 39.6185 10.405 40.5563 10.405 41.7133C10.405 42.8703 11.3431 43.8083 12.5001 43.8083C13.6571 43.8083 14.5951 42.8703 14.5951 41.7133Z" fill="#FFFFFC"/>
<path id="path82" d="M15.4637 1.43749H9.53638C9.36605 1.43749 9.22656 1.57698 9.22656 1.74731V1.80881C9.22656 1.97915 9.36605 2.11841 9.53638 2.11841H15.4637C15.634 2.11841 15.7735 1.97915 15.7735 1.80881V1.74731C15.7735 1.57698 15.634 1.43749 15.4637 1.43749Z" fill="#FFFFFC"/>
<path id="path84" d="M18.9642 25.5509C18.2119 24.2797 17.4273 23.7209 16.2302 24.3937L15.9213 24.5765C13.9728 24.5452 12.8818 22.036 12.5107 21.5955C12.3031 21.0583 10.6284 18.8945 11.5384 17.1712L11.8475 16.9885C13.0131 16.2628 12.9008 15.3063 12.1484 14.0349C11.4792 12.9044 11.142 11.855 10.1562 12.4384L9.53825 12.8042C8.78105 13.2524 8.21048 13.868 7.88887 14.5118V14.5116C7.88887 14.5116 6.91184 16.1293 7.39864 18.3325C7.52741 18.9149 7.74982 19.4584 8.04635 19.959L9.92177 23.1279L11.7972 26.2966C12.0935 26.7973 12.4627 27.2539 12.9116 27.6471C14.6087 29.134 16.4968 29.0558 16.4968 29.0558V29.0556C17.2158 29.0835 18.0298 28.8795 18.7872 28.4313L19.4051 28.0655C20.391 27.4821 19.6333 26.6816 18.9642 25.5509Z" fill="#F9AA0C"/>
</g>
</svg>
