<svg width="22" height="39" viewBox="0 0 22 39" fill="none" xmlns="http://www.w3.org/2000/svg">
<g id="Vector">
<path d="M6.64134 25.4314C6.64134 25.4314 5.61713 20.7454 4.3073 19.0772C2.99747 17.4085 1.11455 14.7072 1.60578 10.5321C2.09697 6.35701 2.25161 2.7145 6.64134 2.42719C11.0311 2.1403 12.7745 0.711392 16.1134 2.5944C19.4523 4.4774 20.844 6.60273 20.6802 9.95877C20.5165 13.3152 19.9434 16.5898 18.6336 17.9818C17.3238 19.3734 17.4875 23.1392 16.587 24.2853C15.6865 25.4314 13.9004 26.8231 11.1095 26.905C8.31865 26.9868 6.64134 25.4314 6.64134 25.4314Z" fill="#FFF200"/>
<path d="M21.4502 7.59242C20.6495 5.03379 19.0222 2.85371 16.9857 1.61068C15.6053 0.768277 13.7214 0.194928 11.8167 0.0387539C9.10853 -0.1832 6.40617 0.555235 4.32998 2.07411C2.56649 3.36425 1.15888 5.48533 0.468021 7.89373C-0.0842339 9.81875 -0.424888 12.7924 1.08826 16.0246C1.49283 16.889 2.03146 17.7026 2.5524 18.4898C3.39514 19.763 4.26658 21.0794 4.58534 22.6379C4.69695 23.1837 4.70582 23.6525 4.71363 24.0662C4.72216 24.523 4.72958 24.9174 4.867 25.292C5.21097 26.2299 6.28908 27.2299 7.37462 27.6181C8.11899 27.8842 9.1107 27.9064 10.0627 27.9064C10.1985 27.9064 12.2727 27.9256 12.5427 27.9256C13.1781 27.9256 13.9067 27.9001 14.4929 27.711C15.7206 27.3147 16.7495 26.221 17.0944 25.3931C17.2702 24.9713 17.3074 24.4069 17.3467 23.8093C17.373 23.4101 17.4001 22.9973 17.471 22.6356C17.8066 20.9224 18.6176 19.7244 19.4763 18.4559C20.039 17.6249 20.6209 16.7651 21.0611 15.747C22.1612 13.202 22.2994 10.3059 21.4502 7.59242ZM12.0842 25.7207L12.0829 25.7399H9.96775C9.85575 24.475 9.75471 23.1808 9.65667 21.9267C9.5207 20.1861 9.38044 19.3997 9.2092 17.6576C9.22274 17.658 9.23623 17.658 9.2496 17.658C9.83232 17.658 10.2691 17.518 10.6913 17.3826C10.7965 17.3491 10.8969 17.3168 10.9993 17.2867C11.099 17.3066 11.2311 17.3499 11.3804 17.3991C11.7325 17.5146 12.2148 17.6729 12.7544 17.6729C12.7829 17.6729 12.8114 17.6724 12.8397 17.6716C12.5018 20.6113 12.2897 22.7105 12.0842 25.7207ZM10.9186 13.9773C10.9632 13.9654 10.9781 13.3743 11 13.3743C11.039 13.3743 11.3159 13.9642 11.3447 14.0571C11.4094 14.2659 11.0983 15.2904 11 15.542C10.8921 15.2776 10.8298 14.2638 10.9186 13.9773ZM19.8217 12.1902C19.6363 14.4157 18.5606 16.0818 17.5202 17.6937C16.5469 19.2015 15.5405 20.7603 15.3133 22.733C15.2809 23.0139 15.2787 23.2772 15.2765 23.5317C15.273 23.9288 15.2701 24.2717 15.1522 24.5533C14.941 25.0577 14.5194 25.4013 13.8053 25.6412C13.9916 23.0119 14.243 20.683 14.5707 17.3987C15.6859 17.0461 16.8889 16.1671 16.8447 14.7467C16.8155 13.8139 16.05 12.7708 15.0692 12.7708L15.0344 12.7712C13.5593 12.8081 13.1968 14.521 13.077 15.9274C13.0414 15.9278 13.0056 15.9282 12.9699 15.9286C12.8941 15.9299 12.8184 15.9312 12.7438 15.9312C12.6576 15.9312 12.562 15.9295 12.4701 15.9223C12.8378 15.1253 12.9946 13.9973 12.6028 13.1752C12.346 12.6367 11.8915 12.3107 11.2883 12.2322C10.5116 12.1312 9.90604 12.368 9.55028 12.9057C9.06393 13.6408 9.14236 14.8087 9.47126 15.5828C9.50211 15.6553 9.55062 15.7232 9.60188 15.7958C9.62378 15.8264 9.65689 15.873 9.68184 15.9138C9.63533 15.9257 9.55881 15.9363 9.43264 15.9363C9.3506 15.9363 9.26484 15.932 9.17915 15.9286C9.10972 15.9252 9.03843 15.9223 8.96789 15.921C8.81864 14.6996 8.49203 12.7712 6.94785 12.7712H6.92061C6.02384 12.7848 5.30072 13.7176 5.21262 14.5464C5.0188 16.3692 6.71245 17.1628 7.47817 17.4696C7.55897 18.6171 7.66252 18.7478 7.7628 19.8521C7.93158 21.7114 8.10579 23.6298 8.17501 25.6235C7.63833 25.4228 7.21475 25.1987 6.97811 24.7922C6.79754 24.4822 6.78888 24.0881 6.77886 23.632C6.77381 23.4044 6.76864 23.1691 6.74288 22.9168C6.53191 20.8503 5.49403 19.2062 4.4904 17.616C4.38549 17.4501 4.28109 17.2846 4.17814 17.1195C3.15358 15.4762 2.15258 13.6531 2.14503 11.0393C2.13085 6.08414 5.08641 3.83107 7.56843 2.81339C8.65767 2.36694 9.82273 2.14032 11.0311 2.14032C13.3015 2.14032 15.54 2.97848 17.0192 4.38278C19.2919 6.53994 20.1038 8.80191 19.8217 12.1902ZM14.4038 15.9876C14.454 15.7003 15.0216 14.1339 15.1166 13.9977C15.1508 14.0915 15.4783 14.8558 15.4433 14.9725C15.4069 15.0934 14.4918 15.8934 14.4038 15.9876ZM7.86979 16.1956C6.35511 15.8094 6.74712 14.3109 6.78311 14.2307C7.05531 14.7285 7.79535 15.6833 7.86979 16.1956Z" fill="#231F20"/>
<path d="M12.2976 29.333C11.6854 29.2525 8.81294 28.8509 8.04599 28.7899C7.79322 28.7698 7.59214 28.7604 7.41339 28.7604C6.52702 28.7604 6.05387 29.0363 6.00672 29.5805C5.90975 30.7045 8.34781 30.922 9.9612 31.0659C10.226 31.0895 10.4548 31.1099 10.6146 31.1305C11.0974 31.1925 11.5624 31.2337 12.0119 31.2735C12.4471 31.312 12.8582 31.3483 13.259 31.4009C13.4348 31.424 13.6141 31.4606 13.8041 31.4994C14.1236 31.5645 14.454 31.6319 14.7768 31.6321C15.1649 31.6321 15.4806 31.5348 15.7417 31.3347C15.7703 31.3128 15.794 31.2866 15.8116 31.2575C16.0364 30.8857 16.0626 30.5566 15.8892 30.2791C15.5026 29.66 12.5317 29.3638 12.2976 29.333Z" fill="#231F20"/>
<path d="M12.3292 32.09C12.0526 32.0726 11.8134 32.0576 11.6607 32.0383C11.2253 31.9834 10.8019 31.8995 10.3536 31.8107C9.54637 31.6508 8.7116 31.4854 7.75486 31.4854C7.62441 31.4854 7.49285 31.4886 7.36366 31.4948C6.93143 31.5156 6.03219 31.559 6.00601 32.389C5.97464 33.3861 7.93158 33.6068 9.82421 33.8201C10.1414 33.8559 10.4411 33.8897 10.7195 33.9262C10.8708 33.9461 11.0885 33.9811 11.3405 34.0217C12.1547 34.1531 13.385 34.3516 14.3346 34.3516C14.3358 34.3516 14.3371 34.3516 14.3384 34.3516C14.6929 34.3516 15.7532 34.3494 15.9426 33.7267C16.0295 33.4407 15.9766 33.1721 15.7895 32.9496C15.2632 32.3236 13.8525 32.1858 12.3292 32.09Z" fill="#231F20"/>
<path d="M13.5114 34.8443C13.3445 34.798 13.1927 34.7756 13.0473 34.7756C12.45 34.7756 12.1601 35.1552 11.927 35.4603C11.6558 35.8156 11.4663 36.0333 11.0094 36.0334C11.0093 36.0334 11.0095 36.0334 11.0094 36.0334C10.9215 36.0334 10.8244 36.0249 10.7211 36.0082C10.4261 35.9604 10.2833 35.7745 10.0746 35.4751C9.85875 35.1654 9.59016 34.7799 8.99262 34.7417C8.92493 34.7373 8.85886 34.7351 8.79643 34.7351C8.00804 34.7351 7.76457 35.0911 7.68967 35.3033C7.40402 36.1116 8.55784 37.4195 9.00514 37.6719C9.55595 37.9828 10.271 38.1541 11.0181 38.1541C11.8407 38.1541 12.6097 37.9468 13.1834 37.5707C13.7538 37.1967 14.4681 36.3027 14.3255 35.597C14.2527 35.237 13.9636 34.9697 13.5114 34.8443Z" fill="#231F20"/>
</g>
</svg>
